{"glyphs":{"0":{"ha":738,"x_min":44,"x_max":693,"o":"m 458 254 l 457 707 q 446 833 457 789 q 368 917 425 917 q 292 832 313 917 q 279 703 279 782 l 281 238 q 292 117 281 158 q 368 39 313 39 q 446 124 425 39 q 458 254 458 174 m 369 978 q 622 803 535 978 q 693 478 693 663 q 624 154 693 293 q 369 -22 536 -22 q 113 151 199 -22 q 44 478 44 288 q 113 803 44 667 q 369 978 200 978 z "},"1":{"ha":738,"x_min":90,"x_max":649,"o":"m 90 0 l 92 61 q 208 69 150 65 q 263 158 263 85 l 263 708 q 226 799 263 776 q 136 814 201 814 l 94 814 l 94 875 q 263 909 154 875 q 478 978 371 943 l 478 157 q 535 71 478 89 q 649 61 564 61 l 649 0 l 90 0 z "},"2":{"ha":738,"x_min":35,"x_max":689,"o":"m 688 304 l 689 246 q 626 64 689 143 q 458 -21 560 -21 q 302 44 390 -21 q 167 108 214 108 q 128 92 143 108 q 113 50 113 75 q 116 17 113 32 q 125 -21 119 1 l 35 -21 l 35 11 q 136 285 35 153 q 325 497 231 390 q 428 742 428 622 q 390 864 428 819 q 276 908 353 908 q 194 887 239 908 q 146 832 150 865 q 211 807 147 829 q 275 701 275 785 q 243 625 275 653 q 161 597 211 597 q 73 638 108 597 q 38 732 38 678 q 139 922 38 857 q 357 978 225 978 q 575 914 490 978 q 669 713 669 843 q 542 488 669 588 q 300 343 508 463 q 158 204 165 267 l 172 186 q 238 206 206 200 q 307 211 269 211 q 407 196 340 211 q 508 181 474 181 q 593 215 564 181 q 626 304 617 244 l 688 304 z "},"3":{"ha":738,"x_min":42,"x_max":679,"o":"m 679 231 q 578 43 679 114 q 364 -21 486 -21 q 154 24 242 -21 q 42 192 42 81 q 74 284 42 249 q 165 319 107 319 q 249 289 218 319 q 279 206 279 258 q 246 126 279 147 q 193 90 196 94 q 250 53 193 64 q 293 49 272 49 q 418 117 382 49 q 444 264 444 167 q 410 428 444 399 q 244 458 376 458 l 213 490 q 226 517 213 510 q 263 525 240 525 q 289 524 272 525 q 311 522 306 522 q 414 585 389 522 q 429 717 429 624 q 397 869 429 829 q 303 908 364 908 q 240 900 261 908 q 217 875 219 892 q 272 828 244 851 q 293 757 293 806 q 263 678 293 707 q 182 649 232 649 q 103 686 135 649 q 72 774 72 724 q 171 938 72 885 q 369 978 247 978 q 568 917 482 978 q 664 740 664 849 q 613 610 664 664 q 399 500 549 542 q 593 418 526 472 q 679 231 679 349 z "},"4":{"ha":738,"x_min":28,"x_max":696,"o":"m 28 347 l 456 978 l 576 978 l 576 349 l 696 349 l 696 260 l 576 260 l 576 157 q 610 78 576 100 q 696 61 636 61 l 696 0 l 224 0 l 224 61 l 251 60 q 338 88 314 60 q 363 181 363 117 l 361 260 l 28 260 l 28 347 m 361 349 l 361 722 l 100 349 l 361 349 z "},"5":{"ha":738,"x_min":51,"x_max":682,"o":"m 131 978 q 336 932 318 935 q 465 919 408 919 q 549 931 513 919 q 617 978 600 946 l 658 978 q 374 744 610 744 q 290 749 325 744 q 192 767 254 754 l 174 544 q 267 594 218 576 q 369 611 315 611 q 594 525 507 611 q 682 303 682 439 q 581 60 682 146 q 324 -21 485 -21 q 142 28 218 -21 q 51 186 51 85 q 84 273 51 238 q 167 308 117 308 q 249 280 218 308 q 281 201 281 251 q 244 121 281 147 q 204 81 215 99 q 233 50 204 60 q 288 40 261 40 q 401 90 363 40 q 439 285 439 140 q 399 469 439 417 q 294 515 364 515 q 224 499 257 515 q 167 451 192 483 l 99 472 l 131 978 z "},"6":{"ha":738,"x_min":39,"x_max":686,"o":"m 281 233 q 292 115 281 157 q 367 40 313 40 q 439 115 419 40 q 450 233 450 157 l 450 315 q 439 435 450 392 q 367 511 419 511 q 293 436 314 511 q 281 317 281 390 l 281 233 m 39 440 q 126 797 39 646 q 424 979 232 979 q 582 942 518 979 q 661 807 661 896 q 629 722 661 756 q 544 689 597 689 q 467 719 496 689 q 438 799 438 750 q 460 854 438 835 q 496 893 490 882 q 467 913 486 908 q 425 918 449 918 q 300 818 333 918 q 279 640 279 756 l 282 535 q 354 579 318 564 q 432 594 390 594 q 618 506 546 594 q 686 306 686 422 q 600 71 686 161 q 371 -19 514 -19 q 111 132 200 -19 q 39 440 39 256 z "},"7":{"ha":738,"x_min":58,"x_max":650,"o":"m 75 978 l 139 978 q 146 934 139 956 q 171 913 153 913 q 244 956 207 933 q 322 978 282 978 q 424 940 374 978 q 539 858 533 858 q 561 867 553 858 q 575 906 575 881 q 566 942 575 922 q 544 978 557 961 l 635 976 q 650 882 650 928 q 629 761 650 825 q 546 572 617 722 q 502 426 511 497 q 493 246 493 354 l 493 197 q 456 24 493 69 q 350 -21 419 -21 q 253 24 285 -21 q 222 138 222 68 q 301 338 222 222 q 456 542 378 439 q 554 754 543 664 l 539 757 q 472 713 503 728 q 403 699 442 699 q 278 751 358 699 q 206 778 238 778 q 133 717 153 778 q 118 613 126 694 l 58 613 l 75 978 z "},"8":{"ha":738,"x_min":50,"x_max":690,"o":"m 229 221 q 264 96 229 143 q 379 40 304 40 q 469 78 438 40 q 501 176 501 115 q 440 322 501 261 q 304 415 404 358 q 229 221 229 338 m 492 753 q 464 865 492 822 q 365 917 431 917 q 284 883 310 917 q 258 790 258 849 q 310 657 258 713 q 431 572 346 618 q 481 659 469 628 q 492 753 492 690 m 690 264 q 599 53 690 131 q 375 -21 513 -21 q 157 29 243 -21 q 50 214 50 92 q 110 360 50 299 q 246 444 158 410 q 119 554 163 493 q 69 714 69 625 q 163 911 69 839 q 375 978 247 978 q 574 929 492 978 q 672 761 672 871 q 638 658 672 706 q 489 546 593 597 q 631 433 579 499 q 690 264 690 357 z "},"9":{"ha":738,"x_min":51,"x_max":699,"o":"m 457 722 q 446 840 457 799 q 372 917 425 917 q 299 842 319 917 q 286 722 286 796 l 286 640 q 297 522 286 564 q 371 446 318 446 q 444 521 424 446 q 457 640 457 567 l 457 722 m 699 517 q 611 161 699 313 q 315 -21 506 -21 q 157 18 224 -21 q 76 150 76 65 q 110 233 76 199 q 194 268 143 268 q 271 238 242 268 q 300 158 300 207 q 278 107 300 129 q 240 64 247 76 q 272 47 251 53 q 311 40 293 40 q 436 136 401 40 q 460 310 460 200 l 457 424 q 383 379 422 396 q 304 363 344 363 q 120 449 189 363 q 51 653 51 535 q 137 888 51 799 q 367 978 222 978 q 625 826 538 978 q 699 517 699 700 z "}," ":{"ha":368,"x_min":0,"x_max":0,"o":""},"!":{"ha":515,"x_min":149,"x_max":367,"o":"m 226 356 l 226 435 q 188 676 226 540 q 149 867 149 813 q 175 958 149 924 q 257 993 201 993 q 338 957 310 993 q 365 868 365 921 q 354 782 365 829 q 310 642 353 775 q 292 542 297 599 q 288 428 288 486 l 288 356 l 226 356 m 257 194 q 333 163 300 194 q 367 88 367 131 q 332 11 367 43 q 253 -21 297 -21 q 181 12 213 -21 q 150 86 150 44 q 182 161 150 128 q 257 194 214 194 z "},"\"":{"ha":440,"x_min":-1,"x_max":443,"o":"m 57 565 q 24 733 36 668 q -1 897 -1 861 q 27 963 -1 931 q 89 994 56 994 q 152 963 122 994 q 182 897 182 932 q 157 735 182 858 q 121 565 139 650 l 57 565 m 319 565 q 286 733 299 668 q 261 897 261 861 q 290 963 261 931 q 351 994 318 994 q 413 962 383 994 q 443 896 443 929 q 419 735 443 851 q 383 565 401 650 l 319 565 z "},"#":{"ha":738,"x_min":40,"x_max":697,"o":"m 663 299 l 528 299 l 485 0 l 364 0 l 404 299 l 294 299 l 251 0 l 132 0 l 172 299 l 40 299 l 40 425 l 192 425 l 208 540 l 78 540 l 78 667 l 225 667 l 265 944 l 383 944 l 344 667 l 457 667 l 496 944 l 618 944 l 578 667 l 697 667 l 697 540 l 560 540 l 544 425 l 663 425 l 663 299 m 328 540 l 311 425 l 422 425 l 439 540 l 328 540 z "},"$":{"ha":738,"x_min":49,"x_max":686,"o":"m 335 911 q 251 872 283 901 q 218 792 218 842 q 256 707 218 746 q 335 653 283 678 l 335 911 m 394 46 q 490 94 456 57 q 525 193 525 132 q 485 297 525 250 q 394 368 453 333 l 394 46 m 394 622 q 596 499 538 553 q 686 288 686 414 q 607 75 686 154 q 394 -18 528 -4 l 394 -212 l 333 -212 l 332 -19 q 144 38 228 -19 q 49 201 49 103 q 76 286 49 250 q 150 322 103 322 q 224 294 194 322 q 254 222 254 265 q 214 146 254 172 q 172 108 185 126 q 239 58 172 79 q 333 42 292 42 l 333 401 q 204 478 226 463 q 110 572 140 522 q 74 719 74 632 q 153 894 74 822 q 333 975 226 961 l 333 1125 l 394 1125 l 393 975 q 569 926 489 975 q 664 781 664 869 q 635 702 664 735 q 561 669 607 669 q 493 696 522 669 q 464 763 464 722 q 484 818 464 793 q 533 856 504 843 q 476 900 533 883 q 394 915 439 911 l 394 622 z "},"%":{"ha":1181,"x_min":35,"x_max":1147,"o":"m 342 -39 l 264 -39 l 775 883 q 596 831 692 831 q 515 843 556 831 l 517 819 q 442 567 517 682 q 226 435 356 435 q 84 491 133 435 q 35 642 35 547 q 129 875 35 772 q 353 978 224 978 q 472 928 414 978 q 618 878 531 878 q 742 914 676 878 q 846 993 797 944 l 914 996 l 342 -39 m 185 569 q 206 515 185 535 q 260 496 226 496 q 414 608 347 496 q 472 803 472 707 q 467 861 472 835 q 383 917 424 881 q 246 775 315 917 q 185 569 185 650 m 1147 339 q 1069 100 1147 210 q 858 -21 983 -21 q 717 35 765 -21 q 668 186 668 90 q 762 419 668 317 q 985 522 856 522 q 1108 474 1068 522 q 1147 339 1147 425 m 899 42 q 1047 153 982 42 q 1106 342 1106 251 q 1089 424 1106 394 q 1018 461 1067 461 q 879 322 949 461 q 818 118 818 199 q 899 42 818 42 z "},"&":{"ha":1107,"x_min":50,"x_max":1063,"o":"m 244 367 q 317 182 244 275 q 483 82 394 82 q 528 88 506 82 q 585 114 550 93 q 451 307 524 192 q 329 510 429 343 q 269 451 293 493 q 244 367 244 408 m 615 821 q 588 899 615 865 q 517 933 561 933 q 451 902 476 933 q 425 828 425 871 q 453 738 425 793 q 503 653 465 713 q 582 722 563 697 q 615 821 615 764 m 735 572 l 1056 572 l 1056 511 q 893 396 961 503 q 783 214 838 304 q 832 153 808 174 q 903 122 865 122 q 956 143 932 122 q 1004 228 985 169 l 1063 207 q 978 47 1029 101 q 813 -21 913 -21 q 719 3 764 -21 q 635 67 675 28 q 503 3 583 28 q 351 -21 422 -21 q 139 58 228 -21 q 50 260 50 138 q 96 407 50 340 q 300 569 151 488 q 251 686 261 647 q 242 767 242 725 q 317 929 242 865 q 493 993 392 993 q 647 946 583 993 q 718 807 718 893 q 661 678 718 732 q 538 599 624 643 l 746 267 q 804 356 786 324 q 839 453 839 417 q 822 494 839 483 q 735 511 804 504 l 735 572 z "},"'":{"ha":318,"x_min":69,"x_max":251,"o":"m 128 565 q 94 733 107 668 q 69 897 69 861 q 98 963 69 931 q 160 994 126 994 q 222 963 193 994 q 251 897 251 931 q 226 735 251 858 q 192 565 208 650 l 128 565 z "},"(":{"ha":440,"x_min":47,"x_max":396,"o":"m 396 -176 q 136 75 225 -79 q 47 425 47 229 q 135 776 47 624 q 396 1025 224 928 l 396 978 q 264 799 304 913 q 231 574 231 704 l 231 276 q 263 53 231 144 q 396 -128 303 -61 l 396 -176 z "},")":{"ha":440,"x_min":44,"x_max":392,"o":"m 46 1025 q 303 776 215 931 q 392 425 392 622 q 303 74 392 228 q 46 -176 215 -79 l 44 -128 q 176 51 136 -62 q 210 276 210 146 l 210 574 q 176 797 210 701 q 46 978 135 915 l 46 1025 z "},"*":{"ha":663,"x_min":61,"x_max":603,"o":"m 410 919 q 368 817 410 907 q 347 742 347 771 l 364 733 q 418 799 381 746 q 522 893 486 893 q 577 866 554 893 q 600 806 600 839 q 494 730 600 744 q 378 708 389 715 l 378 692 q 514 671 467 679 q 603 596 603 656 q 578 538 603 564 q 521 513 554 513 q 440 579 482 513 q 363 665 393 654 l 346 657 q 413 467 379 561 q 389 423 413 439 q 336 407 365 407 q 280 428 303 407 q 257 483 257 450 q 288 568 257 513 q 318 657 318 624 l 301 667 q 224 578 272 654 q 133 510 181 510 q 82 540 103 510 q 61 604 61 571 q 164 669 61 658 q 282 693 267 681 l 282 711 q 151 729 197 722 q 65 803 65 744 q 87 863 65 839 q 144 888 108 888 q 228 821 186 888 q 304 733 275 746 l 318 742 q 254 938 286 839 q 278 978 254 963 q 332 993 303 993 q 410 919 410 993 z "},"+":{"ha":804,"x_min":64,"x_max":740,"o":"m 324 679 l 481 679 l 481 418 l 740 418 l 740 261 l 481 261 l 481 0 l 324 0 l 324 261 l 64 261 l 64 418 l 324 418 l 324 679 z "},",":{"ha":368,"x_min":68,"x_max":294,"o":"m 294 53 q 222 -118 294 -37 q 71 -235 169 -176 l 68 -192 l 75 -172 q 156 -110 119 -144 q 208 -28 208 -60 q 199 -15 208 -18 q 181 -12 190 -12 q 101 14 126 -7 q 71 92 71 39 q 99 170 71 140 q 175 200 128 200 q 268 156 238 200 q 294 53 294 117 z "},"-":{"ha":440,"x_min":46,"x_max":397,"o":"m 46 411 l 397 411 l 397 289 l 46 289 l 46 411 z "},".":{"ha":368,"x_min":75,"x_max":292,"o":"m 182 197 q 260 165 229 197 q 292 86 292 132 q 258 12 292 42 q 179 -18 224 -18 q 106 15 138 -18 q 75 89 75 47 q 107 164 75 131 q 182 197 139 197 z "},"/":{"ha":368,"x_min":-39,"x_max":408,"o":"m -39 -118 l 292 1025 l 408 1025 l 74 -118 l -39 -118 z "},":":{"ha":368,"x_min":75,"x_max":292,"o":"m 182 197 q 260 165 229 197 q 292 86 292 132 q 258 12 292 42 q 179 -18 224 -18 q 106 15 138 -18 q 75 89 75 47 q 107 164 75 131 q 182 197 139 197 m 182 644 q 260 611 228 644 q 292 532 292 578 q 258 458 292 488 q 179 428 224 428 q 106 460 138 428 q 75 536 75 493 q 107 611 75 578 q 182 644 139 644 z "},";":{"ha":368,"x_min":69,"x_max":296,"o":"m 296 53 q 224 -118 296 -37 q 72 -235 171 -176 l 69 -192 l 75 -172 q 156 -108 117 -144 q 210 -28 210 -57 q 201 -15 210 -18 q 182 -12 192 -12 q 103 14 128 -7 q 72 92 72 39 q 101 170 72 140 q 176 200 129 200 q 269 156 239 200 q 296 53 296 117 m 181 647 q 258 615 225 647 q 290 538 290 582 q 258 463 290 494 q 182 431 226 431 q 106 463 139 431 q 74 539 74 496 q 106 614 74 581 q 181 647 138 647 z "},"<":{"ha":804,"x_min":63,"x_max":740,"o":"m 740 -22 l 63 276 l 63 403 l 740 701 l 740 550 l 261 340 l 740 129 l 740 -22 z "},"=":{"ha":804,"x_min":63,"x_max":740,"o":"m 740 390 l 63 390 l 63 547 l 740 547 l 740 390 m 740 131 l 63 131 l 63 289 l 740 289 l 740 131 z "},">":{"ha":804,"x_min":63,"x_max":740,"o":"m 63 701 l 740 403 l 740 276 l 63 -22 l 63 129 l 542 338 l 63 550 l 63 701 z "},"?":{"ha":738,"x_min":58,"x_max":643,"o":"m 296 344 l 299 467 q 390 643 299 493 q 435 782 435 715 q 399 893 435 851 q 294 935 363 935 q 251 927 275 935 q 228 906 228 919 q 256 860 242 882 q 271 811 271 838 q 238 744 271 769 q 163 718 206 718 q 87 749 115 718 q 58 828 58 781 q 160 960 58 915 q 339 994 238 994 q 539 954 460 994 q 643 790 643 901 q 569 636 643 692 q 432 543 500 589 q 357 344 357 474 l 296 344 m 326 194 q 405 162 374 194 q 436 83 436 129 q 402 9 436 39 q 322 -21 368 -21 q 251 12 282 -21 q 219 86 219 44 q 251 161 219 128 q 326 194 283 194 z "},"@":{"ha":992,"x_min":28,"x_max":968,"o":"m 603 635 q 588 688 603 665 q 542 711 572 711 q 396 563 458 711 q 344 339 344 440 q 360 281 344 304 q 408 258 375 258 q 543 415 475 258 q 603 635 603 553 m 657 307 l 665 286 q 689 276 676 281 q 822 383 768 276 q 869 563 869 475 q 769 803 869 710 q 518 896 668 896 q 235 781 346 896 q 125 494 125 667 q 238 198 125 319 q 525 76 351 76 q 717 122 631 76 q 864 256 803 168 l 958 256 q 775 54 893 129 q 515 -21 657 -21 q 169 129 311 -21 q 28 486 28 279 q 169 846 28 697 q 522 994 311 994 q 833 873 697 994 q 968 576 968 751 q 879 325 968 440 q 650 200 783 200 q 539 260 574 200 q 464 212 501 229 q 385 194 426 194 q 259 258 306 194 q 213 406 213 322 q 296 649 213 533 q 510 774 386 774 q 585 757 550 774 q 643 707 619 740 l 657 750 l 794 749 q 738 586 775 689 q 657 307 671 404 z "},"A":{"ha":1107,"x_min":32,"x_max":1074,"o":"m 582 397 l 457 794 l 321 397 l 582 397 m 33 0 l 32 61 q 142 124 103 76 q 199 240 171 160 l 447 972 l 669 972 l 939 165 q 991 91 954 121 q 1074 61 1028 61 l 1074 0 l 535 0 l 535 61 q 615 69 589 61 q 663 128 663 85 q 642 233 663 174 q 604 335 622 283 l 301 335 q 269 239 279 271 q 251 139 251 181 q 294 75 251 94 q 376 61 325 61 l 376 0 l 33 0 z "},"B":{"ha":1033,"x_min":38,"x_max":967,"o":"m 432 160 q 447 81 432 99 q 524 63 463 63 q 663 131 624 63 q 692 290 692 182 q 633 453 692 403 q 460 503 575 503 l 432 503 l 432 160 m 432 564 l 461 563 q 599 608 561 563 q 636 757 636 654 q 608 865 636 825 q 510 911 576 911 q 429 831 429 911 l 432 564 m 565 972 q 789 931 697 972 q 913 758 913 874 q 810 596 913 654 q 614 535 740 556 q 843 461 761 507 q 967 272 967 392 q 885 90 967 157 q 694 15 818 36 q 486 0 607 0 l 39 0 l 38 61 q 125 76 101 61 q 156 158 156 97 l 156 815 q 129 894 156 876 q 39 911 103 911 l 39 972 l 565 972 z "},"C":{"ha":958,"x_min":49,"x_max":900,"o":"m 881 993 l 897 611 l 836 610 q 749 822 807 739 q 560 932 671 932 q 368 767 419 932 q 338 486 338 668 q 367 215 338 306 q 557 61 417 61 q 735 128 658 61 q 839 290 803 188 l 900 290 q 761 65 864 151 q 517 -21 658 -21 q 181 136 318 -21 q 49 488 49 286 q 181 838 49 688 q 517 994 318 994 q 631 971 565 994 q 761 917 696 943 q 801 944 785 917 q 819 993 811 961 l 881 993 z "},"D":{"ha":1107,"x_min":60,"x_max":1042,"o":"m 456 132 q 478 78 456 94 q 539 63 500 63 q 722 193 674 63 q 753 439 753 275 l 751 550 q 721 788 751 710 q 538 911 672 911 q 477 894 499 911 q 456 840 456 878 l 456 132 m 536 972 q 899 838 756 972 q 1042 486 1042 703 q 871 111 1042 236 q 460 0 719 0 l 61 0 l 60 61 q 147 78 124 61 q 178 158 178 99 l 178 815 q 152 894 178 876 q 61 911 126 911 l 61 972 l 536 972 z "},"E":{"ha":1033,"x_min":49,"x_max":958,"o":"m 949 0 l 49 0 l 50 61 q 138 76 115 61 q 167 158 167 96 l 165 815 q 141 895 165 879 q 49 911 117 911 l 49 972 l 936 972 l 947 650 l 886 651 q 786 843 854 781 q 582 911 711 911 q 465 892 488 911 q 442 779 442 872 l 442 536 l 493 533 q 617 590 582 533 q 644 729 644 635 l 706 729 l 706 281 l 644 281 q 617 422 644 378 q 492 478 582 478 l 442 475 l 442 163 q 478 72 442 90 q 582 63 497 63 q 793 142 719 63 q 897 347 847 200 l 958 347 l 949 0 z "},"F":{"ha":958,"x_min":42,"x_max":940,"o":"m 940 650 l 879 651 q 551 911 817 911 q 481 906 497 911 q 435 815 435 890 l 435 532 l 486 531 q 610 586 575 531 q 638 725 638 631 l 699 725 l 699 276 l 638 276 q 611 418 638 375 q 485 474 576 474 l 435 471 l 435 158 q 464 78 435 96 q 551 61 481 68 l 551 0 l 42 0 l 42 61 q 129 76 107 61 q 158 158 158 96 l 158 815 q 134 895 158 879 q 42 911 110 911 l 42 972 l 929 972 l 940 650 z "},"G":{"ha":1033,"x_min":49,"x_max":996,"o":"m 846 993 l 860 657 l 801 657 q 706 843 771 768 q 524 933 626 933 q 368 807 413 933 q 339 586 339 725 l 339 379 q 369 164 339 246 q 525 40 415 40 q 621 97 586 40 q 650 213 650 146 l 650 315 q 624 394 650 376 q 532 411 597 411 l 532 474 l 996 474 l 996 413 q 914 393 936 413 q 892 315 892 374 l 892 -24 l 828 -24 q 817 40 822 18 q 782 88 803 88 q 632 12 701 46 q 508 -22 563 -22 q 179 138 315 -22 q 49 488 49 290 q 181 838 49 688 q 517 994 318 994 q 643 958 568 994 q 733 921 718 921 q 769 947 754 921 q 788 993 779 963 l 846 993 z "},"H":{"ha":1181,"x_min":74,"x_max":1108,"o":"m 731 531 l 731 818 q 710 890 731 874 q 629 911 689 906 l 629 972 l 1108 972 l 1108 913 q 1029 894 1051 913 q 1007 818 1007 875 l 1007 154 q 1029 79 1007 96 q 1108 61 1043 68 l 1108 0 l 629 0 l 629 61 q 708 81 685 61 q 731 154 731 100 l 731 469 l 450 469 l 450 154 q 472 79 450 96 q 551 61 486 68 l 551 0 l 74 0 l 74 61 q 152 81 129 61 q 175 154 175 100 l 174 818 q 155 891 174 876 q 74 911 136 906 l 74 972 l 551 972 l 551 911 q 472 893 494 911 q 450 819 450 875 l 450 531 l 731 531 z "},"I":{"ha":663,"x_min":78,"x_max":588,"o":"m 588 911 q 499 897 519 911 q 469 815 469 878 l 469 154 q 500 76 469 93 q 588 61 515 68 l 588 0 l 78 0 l 78 61 q 165 76 143 61 q 194 158 194 96 l 194 819 q 164 899 194 881 q 78 911 143 911 l 78 972 l 588 972 l 588 911 z "},"J":{"ha":811,"x_min":8,"x_max":761,"o":"m 303 -118 q 110 -78 188 -118 q 8 81 8 -25 q 45 177 8 136 q 139 218 82 218 q 230 187 193 218 q 267 101 267 156 q 240 26 267 56 q 185 -35 213 -3 q 208 -52 185 -49 q 236 -56 232 -56 q 346 10 314 -56 q 369 146 369 58 l 369 814 q 332 899 369 879 q 236 911 308 911 l 236 972 l 761 972 l 761 911 q 690 906 707 911 q 644 815 644 890 l 644 203 q 549 -32 644 54 q 303 -118 454 -118 z "},"K":{"ha":1107,"x_min":38,"x_max":1088,"o":"m 1057 911 q 839 811 947 900 q 665 640 806 783 q 782 451 704 581 q 900 263 856 329 q 1032 83 971 156 q 1056 67 1042 72 q 1088 61 1071 61 l 1088 0 l 614 0 l 613 61 q 667 67 647 61 q 701 103 701 76 q 607 282 701 139 q 481 467 543 374 l 432 422 l 432 157 q 454 81 432 99 q 532 61 471 67 l 532 0 l 39 0 l 38 63 q 125 76 104 63 q 156 158 156 96 l 156 815 q 129 894 156 876 q 39 911 103 911 l 39 972 l 532 972 l 533 911 q 455 891 478 911 q 432 815 432 871 l 431 501 q 590 658 569 638 q 725 818 710 781 l 726 836 q 688 896 726 879 q 611 911 667 904 l 611 972 l 1057 972 l 1057 911 z "},"L":{"ha":958,"x_min":49,"x_max":926,"o":"m 49 0 l 50 61 q 138 76 115 61 q 167 158 167 96 l 165 815 q 141 895 165 879 q 49 911 117 911 l 49 972 l 560 972 l 558 911 q 488 906 504 911 q 442 815 442 890 l 443 157 q 475 74 443 92 q 568 63 496 63 q 772 160 692 63 q 865 372 838 239 l 926 372 l 910 0 l 49 0 z "},"M":{"ha":1254,"x_min":40,"x_max":1213,"o":"m 568 0 l 497 0 l 240 911 l 235 911 l 235 192 q 267 100 235 139 q 351 61 300 61 l 351 0 l 42 0 l 40 63 q 124 102 90 63 q 158 192 158 142 l 158 836 q 121 897 158 878 q 46 911 93 911 l 46 972 l 479 972 l 615 467 l 626 467 l 765 972 l 1207 972 l 1206 911 q 1117 883 1139 911 q 1096 785 1096 854 l 1096 158 q 1123 79 1096 97 q 1213 61 1150 61 l 1213 0 l 703 0 l 704 61 q 790 78 765 61 q 821 158 821 99 l 821 901 l 813 901 l 568 0 z "},"N":{"ha":1107,"x_min":43,"x_max":1065,"o":"m 247 733 l 244 190 q 278 100 244 139 q 363 61 311 61 l 363 0 l 51 0 l 51 63 q 135 102 101 63 q 169 192 169 142 l 169 739 q 147 857 169 824 q 43 911 124 890 l 43 972 l 390 972 l 869 354 l 872 782 q 841 874 872 838 q 756 911 810 911 l 756 972 l 1065 972 l 1065 911 q 982 872 1015 911 q 949 782 949 833 l 949 0 l 819 0 l 247 733 z "},"O":{"ha":1033,"x_min":49,"x_max":983,"o":"m 49 486 q 181 838 49 688 q 517 994 318 994 q 851 838 714 994 q 983 488 983 688 q 851 136 983 288 q 517 -21 714 -21 q 181 135 318 -21 q 49 486 49 285 m 694 406 l 694 569 q 672 797 694 722 q 518 933 632 933 q 363 799 404 933 q 339 571 339 721 l 339 406 q 361 178 339 253 q 517 42 401 42 q 651 123 607 42 q 694 406 694 204 z "},"P":{"ha":958,"x_min":46,"x_max":940,"o":"m 438 497 q 614 533 569 497 q 665 704 665 575 q 642 843 665 794 q 526 911 608 911 q 453 885 469 911 q 438 799 438 860 l 438 497 m 438 157 q 467 74 438 93 q 556 60 488 60 l 556 -1 l 46 -1 l 46 61 q 133 76 111 61 q 163 157 163 96 l 163 813 q 135 896 163 876 q 46 910 114 910 l 46 971 l 535 971 q 800 915 690 971 q 940 703 940 844 q 854 514 940 579 q 654 444 786 463 q 438 435 582 435 l 438 157 z "},"Q":{"ha":1033,"x_min":49,"x_max":1010,"o":"m 694 583 q 669 803 694 725 q 518 932 628 932 q 365 804 407 932 q 339 583 339 724 l 339 393 q 341 310 339 343 q 349 240 343 278 q 414 301 379 279 q 499 328 456 328 q 606 293 558 328 q 679 204 649 263 q 691 292 688 249 q 694 394 694 336 l 694 583 m 753 50 q 785 -4 774 11 q 872 -43 814 -43 q 915 -33 892 -43 q 968 6 938 -24 l 1010 -36 q 928 -143 978 -103 q 801 -190 869 -190 q 678 -134 729 -190 q 628 -4 628 -78 q 517 -21 574 -21 q 181 136 318 -21 q 49 488 49 286 q 181 838 49 688 q 517 993 318 993 q 851 838 714 993 q 985 486 985 686 q 923 238 985 356 q 753 50 861 119 m 617 107 q 583 214 617 167 q 489 268 546 268 q 411 236 442 268 q 381 156 381 204 q 421 72 381 103 q 517 40 461 40 q 582 54 556 40 q 617 107 617 72 z "},"R":{"ha":1033,"x_min":42,"x_max":1032,"o":"m 435 540 q 597 572 553 540 q 653 726 653 613 q 631 856 653 817 q 515 911 599 911 q 432 829 432 911 l 435 540 m 435 158 q 464 75 435 94 q 551 61 485 61 l 551 0 l 42 0 l 42 61 q 129 76 107 61 q 158 158 158 96 l 158 814 q 131 897 158 878 q 42 911 110 911 l 42 972 l 564 972 q 803 921 706 972 q 928 725 928 854 q 813 567 928 628 q 610 501 740 528 q 790 402 729 468 q 864 215 851 336 q 877 115 864 149 q 917 82 890 82 q 957 135 942 82 q 971 210 964 158 l 1032 210 q 986 51 1032 114 q 842 -21 933 -21 q 651 108 686 -21 q 622 349 636 228 q 451 479 593 479 l 435 478 l 435 158 z "},"S":{"ha":811,"x_min":50,"x_max":764,"o":"m 111 364 q 229 150 151 238 q 439 40 325 40 q 560 82 511 40 q 608 194 608 124 q 467 350 608 290 q 203 458 335 404 q 61 697 61 543 q 147 910 61 826 q 363 993 233 993 q 450 976 399 993 q 588 940 560 940 q 601 944 592 940 q 621 953 610 947 l 638 994 l 699 994 l 706 665 l 644 665 q 538 844 606 772 q 354 932 454 932 q 258 897 299 932 q 217 806 217 861 q 358 651 217 710 q 622 544 490 597 q 764 293 764 458 q 671 64 764 153 q 438 -25 578 -25 q 314 1 385 -25 q 172 56 243 28 q 133 31 146 56 q 119 -21 119 6 l 58 -21 l 50 364 l 111 364 z "},"T":{"ha":958,"x_min":43,"x_max":918,"o":"m 211 0 l 211 63 q 299 71 276 63 q 342 142 342 88 l 342 911 q 172 804 239 911 q 104 601 118 718 l 43 601 l 43 972 l 918 972 l 918 601 l 856 601 q 789 803 843 717 q 618 911 721 911 l 618 176 q 642 75 618 93 q 747 61 660 61 l 747 0 l 211 0 z "},"U":{"ha":1107,"x_min":39,"x_max":1069,"o":"m 560 -21 q 222 129 317 -21 q 154 460 154 238 q 160 613 154 514 q 165 749 165 711 q 144 878 165 836 q 108 904 133 897 q 53 911 83 911 l 39 911 l 39 972 l 535 972 l 536 911 q 454 892 476 911 q 432 815 432 874 l 429 319 q 471 139 429 201 q 635 63 521 63 q 818 150 754 63 q 876 353 876 229 l 876 782 q 845 874 876 838 q 758 911 814 911 l 758 972 l 1069 972 l 1068 911 q 968 832 997 911 q 944 657 944 768 q 947 558 944 607 q 951 467 949 508 q 878 118 951 229 q 560 -21 786 -21 z "},"V":{"ha":1033,"x_min":17,"x_max":1018,"o":"m 17 972 l 528 972 l 528 911 l 507 913 q 451 906 469 913 q 421 863 421 893 q 501 582 421 810 q 611 282 556 432 q 717 557 676 450 q 793 824 793 761 q 760 892 793 874 q 672 911 726 911 l 672 972 l 1017 972 l 1018 908 q 904 847 944 899 q 847 726 879 815 l 576 -21 l 444 -21 l 154 806 q 106 883 135 861 q 17 911 76 906 l 17 972 z "},"W":{"ha":1329,"x_min":15,"x_max":1315,"o":"m 524 972 l 951 972 l 951 913 q 892 899 918 913 q 867 856 867 886 l 1000 304 q 1065 494 1013 346 q 1144 828 1144 717 q 1118 887 1144 868 q 1047 911 1092 906 l 1047 972 l 1314 972 l 1315 913 q 1258 886 1279 908 q 1224 825 1236 864 l 974 -21 l 851 -21 l 664 685 l 460 -21 l 335 -21 l 121 771 q 94 864 99 856 q 15 911 75 899 l 15 972 l 433 972 l 433 913 q 374 900 392 913 q 356 865 356 888 q 407 590 356 771 q 489 313 447 451 q 543 483 499 344 q 597 668 581 597 q 622 843 622 771 q 592 894 622 878 q 524 911 561 911 l 524 972 z "},"X":{"ha":1107,"x_min":46,"x_max":1063,"o":"m 46 0 l 46 61 q 221 153 135 75 q 439 424 257 186 l 190 819 q 133 883 161 865 q 49 911 104 900 l 49 972 l 575 972 l 575 911 q 513 903 538 911 q 489 867 489 896 q 560 722 489 833 q 611 643 585 682 q 690 742 650 692 q 743 849 743 813 q 717 896 743 882 q 661 911 706 901 l 661 972 l 1035 972 l 1035 913 q 765 743 904 913 q 644 583 679 629 l 928 147 q 985 90 950 113 q 1063 61 1021 68 l 1063 0 l 521 0 l 521 61 q 579 69 574 68 q 613 113 613 81 q 560 243 613 161 q 475 365 517 304 q 383 247 417 292 q 321 118 321 163 q 344 76 321 90 q 428 61 368 61 l 428 0 l 46 0 z "},"Y":{"ha":1107,"x_min":42,"x_max":1065,"o":"m 42 972 l 593 972 l 593 911 q 517 906 542 911 q 464 861 464 894 q 549 671 464 835 q 658 464 603 567 q 760 642 724 574 q 828 825 828 768 q 792 890 828 869 q 707 911 756 911 l 707 972 l 1065 972 l 1065 911 q 963 867 1006 911 q 899 771 935 838 q 751 489 825 629 q 688 369 729 444 l 688 158 q 728 71 688 89 q 831 61 750 61 l 831 0 l 268 0 l 267 61 l 296 61 q 379 74 358 61 q 411 158 411 93 l 411 375 q 357 481 383 428 q 249 685 303 582 q 185 813 196 788 q 129 885 158 863 q 42 911 94 911 l 42 972 z "},"Z":{"ha":886,"x_min":46,"x_max":840,"o":"m 344 61 l 418 60 q 657 136 579 60 q 779 363 714 192 l 840 363 l 811 0 l 46 0 l 46 74 l 538 911 l 456 914 q 239 828 318 914 q 129 614 178 761 l 68 614 l 99 972 l 836 972 l 836 899 l 344 61 z "},"[":{"ha":440,"x_min":43,"x_max":396,"o":"m 43 -114 l 43 1025 l 396 1025 l 396 963 l 211 963 l 211 -51 l 396 -51 l 396 -114 l 43 -114 z "},"\\":{"ha":804,"x_min":178,"x_max":625,"o":"m 292 1025 l 625 0 l 508 0 l 178 1025 l 292 1025 z "},"]":{"ha":440,"x_min":46,"x_max":399,"o":"m 399 1025 l 399 -114 l 46 -114 l 46 -51 l 229 -51 l 229 963 l 46 963 l 46 1025 l 399 1025 z "},"^":{"ha":804,"x_min":61,"x_max":742,"o":"m 61 426 l 321 963 l 483 963 l 742 426 l 586 426 l 403 785 l 218 426 l 61 426 z "},"_":{"ha":663,"x_min":-3,"x_max":665,"o":"m -3 -157 l -3 -75 l 665 -75 l 665 -157 l -3 -157 z "},"`":{"ha":440,"x_min":10,"x_max":314,"o":"m 240 786 q 74 900 132 856 q 10 969 10 949 q 27 1012 10 994 q 69 1029 44 1029 q 200 928 113 1029 q 314 786 257 857 l 240 786 z "},"a":{"ha":738,"x_min":49,"x_max":722,"o":"m 422 343 q 299 310 344 343 q 244 194 244 271 q 265 127 244 153 q 325 101 285 101 q 407 158 385 101 q 422 268 422 197 l 422 343 m 421 401 l 421 521 q 392 622 421 590 q 294 653 364 653 q 260 648 275 653 q 235 629 244 643 q 256 587 239 615 q 274 542 274 558 q 247 480 274 504 q 179 456 219 456 q 112 480 140 456 q 83 544 83 504 q 176 679 83 633 q 347 715 249 715 q 589 613 522 715 q 639 367 639 535 q 635 239 639 325 q 631 110 631 153 l 636 86 l 660 81 l 700 85 l 722 68 q 663 7 722 31 q 569 -11 615 -11 q 436 99 463 -11 q 336 15 379 42 q 213 -22 275 -22 q 95 27 142 -22 q 49 147 49 76 q 178 339 49 275 q 421 401 260 379 z "},"b":{"ha":811,"x_min":31,"x_max":756,"o":"m 526 425 q 515 553 526 511 q 433 632 494 632 q 336 518 363 632 q 321 346 321 451 q 333 175 321 231 q 433 61 360 61 q 504 108 482 61 q 526 268 526 154 l 526 425 m 321 613 q 391 685 349 656 q 481 714 433 714 q 689 590 611 714 q 756 346 756 485 q 679 99 756 204 q 457 -21 593 -21 q 343 15 400 -21 q 251 94 300 43 l 164 -6 l 113 -12 l 113 869 q 92 926 113 910 q 31 942 72 942 l 32 1003 q 176 1014 79 1008 q 321 1025 274 1019 l 321 613 z "},"c":{"ha":738,"x_min":46,"x_max":675,"o":"m 675 140 q 553 24 618 63 q 390 -21 479 -21 q 142 82 239 -21 q 46 338 46 185 q 132 600 46 493 q 378 715 225 715 q 571 667 488 715 q 671 506 671 608 q 642 425 671 457 q 565 393 613 393 q 496 421 522 393 q 469 493 469 449 q 497 562 469 529 q 524 603 524 594 q 494 635 524 624 q 438 646 464 646 q 294 528 331 646 q 274 321 274 460 q 306 151 274 218 q 440 61 349 61 q 550 99 500 61 q 631 186 583 124 l 675 140 z "},"d":{"ha":811,"x_min":40,"x_max":769,"o":"m 271 268 q 283 140 271 186 q 365 61 306 61 q 467 179 440 61 q 481 358 481 242 q 465 524 481 463 q 367 632 439 632 q 285 553 307 632 q 271 425 271 504 l 271 268 m 769 65 l 769 4 q 624 -1 681 4 q 496 -22 568 -6 l 496 106 q 418 17 464 49 q 307 -21 367 -21 q 101 104 175 -21 q 40 350 40 207 q 103 590 40 486 q 307 715 178 715 q 396 693 357 715 q 468 628 435 671 l 471 864 q 447 916 471 904 q 379 928 424 928 l 349 928 l 349 996 l 390 996 q 549 1001 488 996 q 681 1025 610 1007 l 681 131 q 708 79 681 93 q 769 65 721 72 z "},"e":{"ha":738,"x_min":46,"x_max":682,"o":"m 274 351 l 272 271 q 301 129 272 181 q 422 63 339 63 q 540 104 489 63 q 617 207 585 140 l 675 181 q 563 33 638 88 q 389 -21 489 -21 q 144 80 242 -21 q 46 329 46 181 q 131 597 46 489 q 379 715 224 715 q 606 601 521 715 q 682 351 682 499 l 274 351 m 467 413 l 465 469 q 451 585 465 543 q 369 653 428 653 q 289 586 311 653 q 274 469 274 542 l 274 413 l 467 413 z "},"f":{"ha":515,"x_min":28,"x_max":610,"o":"m 326 581 l 326 158 q 349 80 326 99 q 432 61 371 61 l 432 0 l 28 0 l 28 61 q 97 84 76 61 q 117 158 117 107 l 117 581 l 28 581 l 28 643 l 117 643 q 171 907 117 814 q 401 1025 240 1025 q 540 990 483 1025 q 610 872 610 949 q 583 806 610 831 q 515 781 557 781 q 450 801 479 781 q 421 858 421 822 q 438 915 421 882 q 454 944 443 926 q 445 957 454 953 q 411 964 436 961 q 338 899 357 964 q 325 788 325 857 l 326 643 l 493 643 l 493 581 l 326 581 z "},"g":{"ha":811,"x_min":49,"x_max":781,"o":"m 386 19 q 257 7 303 19 q 175 -76 175 -15 q 256 -158 175 -136 q 386 -172 306 -172 q 517 -160 471 -172 q 599 -76 599 -137 q 517 6 599 -17 q 386 19 467 19 m 288 496 q 313 372 288 404 q 386 339 338 339 q 469 390 447 339 q 485 496 485 425 q 469 600 485 565 q 386 653 446 653 q 303 601 325 653 q 288 496 288 567 m 674 493 q 583 326 674 386 q 392 275 506 275 q 263 300 324 275 q 228 271 239 283 q 210 229 210 251 q 263 188 210 200 q 365 179 299 179 q 401 179 385 179 q 432 181 418 179 q 682 126 613 181 q 743 -15 743 79 q 603 -194 743 -139 q 356 -235 501 -235 q 164 -207 242 -235 q 49 -75 49 -165 q 101 21 49 -12 q 211 58 136 43 q 138 103 164 76 q 104 182 104 136 q 136 264 104 229 q 208 321 154 283 q 129 392 160 347 q 99 489 99 436 q 188 663 99 604 q 385 714 265 714 q 550 679 475 714 q 608 753 578 725 q 693 789 649 789 q 754 769 728 789 q 781 715 781 749 q 763 667 781 686 q 714 647 744 647 q 661 665 694 647 q 629 679 639 678 l 590 654 q 651 581 629 622 q 674 493 674 540 z "},"h":{"ha":886,"x_min":54,"x_max":831,"o":"m 353 581 q 439 676 406 650 q 560 715 490 715 q 726 629 679 715 q 763 435 763 564 q 760 344 763 392 q 753 208 753 225 q 763 114 753 143 q 831 61 781 61 l 831 0 l 475 0 l 475 61 q 533 92 514 61 q 549 158 549 117 l 549 468 q 539 560 549 531 q 474 613 522 613 q 378 532 411 613 q 353 397 353 472 l 353 158 q 368 87 353 113 q 426 61 383 61 l 426 0 l 54 0 l 56 61 q 124 84 104 61 q 144 158 144 107 l 143 863 q 124 926 143 910 q 57 942 106 942 l 58 1003 q 213 1008 142 1003 q 353 1025 283 1013 l 353 581 z "},"i":{"ha":515,"x_min":64,"x_max":451,"o":"m 451 61 l 451 0 l 64 0 l 64 61 q 133 84 113 61 q 153 158 153 107 l 153 551 q 133 615 153 599 q 67 632 114 632 l 68 693 q 222 698 151 693 q 363 715 293 703 l 363 157 q 381 83 363 104 q 451 61 400 61 m 251 819 q 167 847 203 819 q 132 922 132 875 q 166 998 132 972 q 250 1024 200 1024 q 335 997 300 1024 q 371 922 371 971 q 336 847 371 875 q 251 819 301 819 z "},"j":{"ha":515,"x_min":-97,"x_max":394,"o":"m 394 96 q 316 -144 394 -54 q 88 -233 238 -233 q -33 -210 14 -233 q -97 -110 -97 -178 q -67 -49 -97 -69 q 6 -28 -36 -28 q 66 -48 40 -28 q 92 -103 92 -68 q 87 -131 92 -118 q 72 -162 82 -143 q 89 -167 74 -162 q 108 -172 104 -172 q 165 -144 144 -172 q 185 -79 185 -117 l 185 513 q 160 629 185 608 q 40 650 136 650 l 40 710 q 220 715 133 710 q 394 735 307 721 l 394 96 m 268 821 q 183 848 218 821 q 149 924 149 875 q 182 1000 149 974 q 268 1026 215 1026 q 355 1001 322 1026 q 388 924 388 976 q 353 849 388 876 q 268 821 318 821 z "},"k":{"ha":811,"x_min":38,"x_max":811,"o":"m 336 383 q 418 449 386 422 q 531 588 531 540 l 521 610 q 478 624 504 619 q 432 628 453 628 l 432 693 l 771 693 l 771 632 q 601 542 688 632 q 522 453 547 479 q 689 175 606 314 q 811 61 769 61 l 811 0 l 467 0 l 467 61 q 507 67 493 61 q 521 83 521 72 q 461 200 521 104 q 382 322 421 261 l 336 285 l 335 158 q 352 89 335 117 q 408 61 369 61 l 408 0 l 38 0 l 38 61 q 106 84 86 61 q 126 158 126 107 l 126 861 q 107 925 126 908 q 40 942 88 942 l 40 1003 q 194 1008 124 1003 q 336 1025 265 1013 l 336 383 z "},"l":{"ha":515,"x_min":64,"x_max":451,"o":"m 451 61 l 451 0 l 64 0 l 64 61 q 133 84 113 61 q 153 158 153 107 l 153 861 q 133 925 153 908 q 67 942 114 942 l 68 1003 q 222 1008 151 1003 q 363 1025 293 1013 l 363 157 q 381 83 363 104 q 451 61 400 61 z "},"m":{"ha":1254,"x_min":42,"x_max":1213,"o":"m 319 574 q 414 671 390 653 q 539 715 471 715 q 655 676 604 715 q 726 574 706 636 q 818 671 789 649 q 942 715 875 715 q 1110 628 1061 715 q 1146 431 1146 563 q 1143 342 1146 389 q 1136 208 1136 224 q 1146 114 1136 144 q 1213 61 1163 61 l 1213 0 l 857 0 l 857 61 q 915 92 896 61 q 931 158 931 117 l 931 468 q 921 560 931 531 q 856 613 904 613 q 758 533 790 613 q 735 397 735 475 l 735 158 q 752 89 735 117 q 808 61 769 61 l 808 0 l 463 0 l 461 61 q 518 88 501 61 q 535 158 535 115 l 536 468 q 526 560 536 531 q 460 613 510 613 q 363 533 394 613 q 339 397 339 475 l 339 158 q 356 89 339 117 q 413 61 374 61 l 413 0 l 42 0 l 42 61 q 110 84 90 61 q 131 158 131 107 l 131 551 q 111 615 131 599 q 44 632 92 632 l 44 693 q 195 697 136 693 q 319 715 254 700 l 319 574 z "},"n":{"ha":886,"x_min":54,"x_max":831,"o":"m 333 581 q 433 672 410 656 q 561 715 493 715 q 726 631 678 715 q 764 439 764 565 q 761 347 764 392 q 753 208 753 214 q 763 114 753 143 q 831 61 781 61 l 831 0 l 475 0 l 475 61 q 533 92 514 61 q 549 158 549 117 l 549 468 q 539 560 549 531 q 474 613 522 613 q 378 532 411 613 q 353 397 353 472 l 353 158 q 368 87 353 113 q 426 61 383 61 l 426 0 l 54 0 l 56 60 q 124 84 104 60 q 144 158 144 108 l 143 551 q 124 615 143 599 q 57 632 104 632 l 58 694 q 333 715 196 694 l 333 581 z "},"o":{"ha":738,"x_min":49,"x_max":690,"o":"m 690 339 q 604 89 690 192 q 368 -21 513 -21 q 129 94 218 -21 q 49 356 49 200 q 135 603 49 500 q 369 714 228 714 q 610 600 522 714 q 690 339 690 496 m 460 442 q 447 571 460 524 q 367 654 425 654 q 288 572 308 654 q 275 442 275 524 l 275 257 q 288 125 275 174 q 368 40 310 40 q 447 124 426 40 q 460 256 460 172 l 460 442 z "},"p":{"ha":811,"x_min":43,"x_max":763,"o":"m 532 425 q 521 546 532 503 q 446 624 500 624 q 354 513 378 624 q 340 346 340 449 q 353 178 340 236 q 446 63 378 63 q 510 113 488 63 q 532 268 532 163 l 532 425 m 314 576 q 390 667 354 638 q 500 706 439 706 q 699 590 625 706 q 763 357 763 489 q 700 117 763 218 q 496 -1 626 -1 q 410 21 446 -1 q 340 81 389 33 l 340 -78 q 363 -153 340 -133 q 443 -174 386 -174 l 443 -235 l 43 -235 l 43 -172 q 132 -78 132 -172 l 132 550 q 113 614 132 597 q 46 631 93 631 l 46 692 q 158 703 88 699 q 314 714 229 708 l 314 576 z "},"q":{"ha":811,"x_min":49,"x_max":785,"o":"m 278 268 q 290 147 278 188 q 374 75 313 75 q 475 186 447 75 q 490 357 490 249 q 475 524 490 463 q 374 632 447 632 q 292 553 314 632 q 278 425 278 504 l 278 268 m 785 -172 l 785 -233 l 375 -233 l 375 -172 q 457 -164 438 -172 q 490 -94 490 -149 l 490 94 q 421 22 453 44 q 325 -7 378 -7 q 118 110 197 -7 q 49 347 49 213 q 122 594 49 489 q 342 715 207 715 q 467 674 411 715 q 556 572 510 642 l 646 714 l 699 714 l 699 -111 q 725 -161 699 -149 q 785 -172 739 -168 z "},"r":{"ha":663,"x_min":49,"x_max":640,"o":"m 328 547 q 399 660 371 629 q 515 715 449 715 q 605 684 569 715 q 640 599 640 653 q 615 522 640 551 q 543 493 590 493 q 479 518 496 493 q 468 581 468 535 l 468 607 l 458 624 q 376 546 411 624 q 347 426 347 482 l 347 158 q 366 83 347 104 q 436 61 385 61 l 436 0 l 49 0 l 50 61 q 119 84 99 61 q 139 158 139 107 l 138 551 q 118 615 138 599 q 51 632 99 632 l 51 693 q 195 698 133 693 q 328 715 257 703 l 328 547 z "},"s":{"ha":701,"x_min":68,"x_max":599,"o":"m 79 233 l 138 233 q 211 101 160 156 q 344 38 271 38 q 421 63 390 38 q 451 132 451 88 q 356 242 451 200 q 168 324 260 283 q 68 500 68 388 q 135 654 68 593 q 296 715 201 715 q 361 704 326 715 q 469 676 449 676 q 490 686 482 676 q 501 711 499 696 l 560 711 l 560 493 l 501 493 q 429 607 481 563 q 304 656 374 656 q 240 633 264 656 q 215 569 215 610 q 314 468 215 511 q 499 383 485 393 q 599 213 599 318 q 531 43 599 108 q 360 -22 463 -22 q 253 3 319 -22 q 175 28 186 28 q 149 15 160 28 q 138 -15 138 3 l 79 -15 l 79 233 z "},"t":{"ha":515,"x_min":38,"x_max":488,"o":"m 319 178 q 328 119 319 136 q 357 101 338 101 q 411 172 393 101 q 426 274 414 183 l 488 274 q 446 79 488 158 q 288 -22 393 -22 q 132 79 169 -22 q 111 282 111 136 l 111 632 l 38 632 l 38 683 q 176 799 119 719 q 254 963 225 865 l 319 963 l 319 693 l 471 693 l 471 632 l 319 632 l 319 178 z "},"u":{"ha":886,"x_min":40,"x_max":824,"o":"m 403 82 q 496 138 458 82 q 529 244 529 186 l 528 551 q 508 615 528 599 q 442 632 489 632 l 443 693 q 597 698 526 693 q 738 715 668 703 l 739 142 q 824 61 739 61 l 824 0 q 660 -5 711 0 q 549 -22 608 -10 l 549 132 q 456 19 493 49 q 317 -22 401 -22 q 151 74 200 -22 q 114 290 114 149 q 117 412 114 350 q 126 551 121 474 q 107 615 126 599 q 40 632 88 632 l 40 693 q 194 698 124 693 q 336 715 265 703 l 335 201 q 344 125 335 151 q 403 82 361 82 z "},"v":{"ha":738,"x_min":22,"x_max":715,"o":"m 715 693 l 714 632 q 657 599 679 628 q 628 536 646 583 l 421 -21 l 304 -21 l 114 518 q 88 594 100 556 q 22 632 67 632 l 22 693 l 375 693 l 376 633 q 322 622 339 633 q 304 589 304 610 q 382 343 304 550 q 435 203 433 206 q 510 394 482 321 q 564 581 564 535 q 540 621 564 610 q 485 632 517 632 l 485 693 l 715 693 z "},"w":{"ha":1107,"x_min":47,"x_max":1061,"o":"m 369 693 l 368 633 q 324 626 342 633 q 307 596 307 618 q 356 410 307 542 q 429 219 392 314 q 471 329 436 242 q 519 521 519 453 q 500 597 519 565 q 438 632 481 628 l 438 693 l 764 693 l 764 632 q 717 624 736 632 q 699 593 699 617 q 742 406 699 539 q 807 211 774 308 q 875 390 851 325 q 919 571 919 513 q 857 632 919 632 l 857 693 l 1060 693 l 1061 632 q 1022 617 1036 632 q 999 578 1007 603 l 799 -21 l 688 -21 l 558 415 l 425 -21 l 311 -21 l 128 517 q 103 586 106 579 q 47 632 83 622 l 47 693 l 369 693 z "},"x":{"ha":811,"x_min":47,"x_max":764,"o":"m 483 693 l 739 693 l 739 631 q 565 497 675 631 q 483 393 524 444 q 565 257 533 310 q 764 61 678 75 l 764 0 l 379 0 l 379 61 q 430 65 408 61 q 451 89 451 69 q 394 199 451 118 q 351 257 372 228 q 301 201 319 222 q 236 92 236 126 q 258 67 236 72 q 307 61 279 61 l 307 0 l 49 0 l 49 61 q 200 165 107 61 q 315 310 293 285 q 206 486 254 415 q 47 632 113 621 l 47 693 l 415 693 l 415 632 q 369 627 388 632 q 351 603 351 622 q 392 526 351 588 q 447 447 424 478 q 510 517 478 482 q 553 594 553 569 q 533 624 553 617 q 483 632 513 632 l 483 693 z "},"y":{"ha":738,"x_min":10,"x_max":715,"o":"m 10 632 l 10 693 l 364 693 l 364 633 q 321 626 331 629 q 296 594 296 618 q 357 432 296 564 q 439 261 397 346 q 492 375 443 272 q 557 579 557 514 q 531 621 557 610 q 471 632 506 632 l 471 693 l 715 693 l 715 632 q 563 408 646 632 q 401 -8 428 43 q 144 -233 288 -233 q 48 -199 86 -233 q 10 -108 10 -165 q 36 -40 10 -69 q 103 -11 63 -11 q 162 -31 139 -11 q 185 -87 185 -51 q 181 -117 185 -103 q 169 -144 172 -136 l 190 -151 q 276 -87 229 -151 q 335 15 313 -39 l 106 521 q 72 592 78 583 q 10 632 46 632 z "},"z":{"ha":589,"x_min":32,"x_max":558,"o":"m 40 460 l 47 693 l 556 692 l 556 633 l 253 61 q 422 92 378 61 q 497 244 472 126 l 558 244 l 554 0 l 32 1 l 32 61 l 335 633 q 174 605 213 633 q 101 460 135 576 l 40 460 z "},"{":{"ha":440,"x_min":49,"x_max":401,"o":"m 356 1025 l 401 1025 l 401 1013 q 328 943 350 999 q 311 825 311 900 q 318 713 311 796 q 321 656 321 679 q 300 532 321 578 q 207 457 274 474 q 300 382 274 443 q 321 247 321 335 q 318 163 321 200 q 313 76 315 126 q 336 -50 313 -11 q 401 -101 360 -89 l 401 -114 l 356 -114 q 183 -46 232 -114 q 146 117 146 7 q 150 213 146 149 q 154 307 154 276 q 136 406 154 376 q 49 454 114 440 q 142 528 115 474 q 161 646 161 568 q 156 748 161 682 q 151 831 151 814 q 188 968 151 924 q 356 1025 235 1025 z "},"|":{"ha":804,"x_min":324,"x_max":481,"o":"m 324 1025 l 481 1025 l 481 0 l 324 0 l 324 1025 z "},"}":{"ha":440,"x_min":40,"x_max":392,"o":"m 286 67 q 236 -78 286 -37 q 85 -114 192 -114 l 40 -114 l 40 -101 q 113 -35 92 -87 q 129 79 129 7 q 124 174 129 113 q 118 254 118 235 q 139 378 118 333 q 235 454 167 436 q 140 532 168 471 q 119 665 119 579 q 124 758 119 699 q 128 839 128 818 q 114 943 128 906 q 40 1013 94 996 l 40 1025 l 85 1025 q 257 957 208 1025 q 294 794 294 904 q 290 699 294 763 q 286 604 286 635 q 306 503 286 533 q 392 457 325 472 q 297 379 325 440 q 276 250 276 333 q 283 131 276 222 q 286 67 286 94 z "},"~":{"ha":804,"x_min":64,"x_max":740,"o":"m 740 379 q 661 271 679 289 q 540 221 611 221 q 396 266 492 221 q 267 311 300 311 q 183 256 219 311 q 151 200 161 217 l 64 301 q 143 413 106 376 q 264 467 199 467 q 417 423 319 467 q 544 379 514 379 q 610 414 578 379 q 653 479 632 438 l 740 379 z "},"":{"ha":728,"x_min":17,"x_max":719,"o":"m 601 697 l 500 517 l 719 517 l 719 440 l 458 440 l 357 258 l 719 258 l 719 182 l 315 182 l 194 -33 l 128 6 l 225 182 l 17 182 l 17 258 l 268 258 l 369 440 l 17 440 l 17 517 l 413 517 l 533 736 l 601 697 z "},"":{"ha":947,"x_min":32,"x_max":915,"o":"m 726 543 q 856 493 796 543 q 915 375 915 443 q 860 227 915 288 q 719 167 806 167 q 556 236 644 167 q 475 308 521 263 q 333 196 397 228 q 229 168 279 168 q 87 227 142 168 q 32 375 32 286 q 92 494 32 446 q 226 543 153 543 q 361 494 290 543 q 474 400 385 478 q 588 496 564 481 q 726 543 657 543 m 219 471 q 136 433 171 471 q 101 347 101 396 q 139 265 101 299 q 225 232 176 232 q 361 290 292 232 q 428 354 385 310 q 333 431 367 408 q 219 471 271 471 m 724 231 q 810 265 772 231 q 847 350 847 300 q 813 433 847 397 q 728 469 778 469 q 590 413 664 469 q 519 353 542 371 q 610 271 592 283 q 724 231 665 231 z "},"‚":{"ha":368,"x_min":53,"x_max":279,"o":"m 279 53 q 207 -118 279 -37 q 56 -235 154 -176 q 53 -210 54 -221 q 54 -192 53 -200 l 61 -172 q 142 -108 110 -137 q 194 -28 194 -60 q 145 -9 194 -22 q 83 15 96 4 q 63 47 71 25 q 56 92 56 69 q 84 170 56 140 q 160 200 113 200 q 253 156 222 200 q 279 53 279 117 z "},"ƒ":{"ha":738,"x_min":-44,"x_max":756,"o":"m 108 574 l 108 635 l 272 635 q 369 860 290 757 q 574 978 460 978 q 697 947 649 978 q 756 842 756 911 q 728 775 756 801 q 660 749 700 749 q 606 769 631 749 q 582 818 582 789 q 594 860 582 843 q 618 894 606 876 l 607 911 l 583 917 q 468 811 497 917 q 453 635 453 754 l 621 635 l 621 574 l 451 574 q 439 256 451 368 q 346 -79 415 43 q 97 -233 258 -233 q -1 -196 42 -233 q -44 -103 -44 -158 q -19 -28 -44 -58 q 51 3 7 3 q 106 -18 82 3 q 129 -71 129 -39 q 110 -118 129 -103 q 72 -151 76 -146 l 75 -161 q 114 -172 94 -167 q 224 -78 192 -172 q 246 111 246 -11 q 245 165 246 136 q 243 228 244 194 q 247 417 243 339 q 263 574 250 494 l 108 574 z "},"„":{"ha":738,"x_min":92,"x_max":642,"o":"m 642 53 q 569 -118 642 -37 q 418 -235 517 -176 q 416 -210 417 -221 q 417 -192 415 -200 l 424 -172 q 504 -110 468 -144 q 557 -28 557 -60 q 508 -9 557 -22 q 446 15 458 4 q 426 47 433 25 q 418 92 418 69 q 447 170 418 140 q 522 200 475 200 q 615 156 585 200 q 642 53 642 117 m 318 51 q 246 -119 318 -39 q 94 -236 193 -178 q 93 -193 92 -207 l 99 -174 q 157 -131 126 -156 q 233 -29 233 -67 q 224 -15 233 -19 q 204 -12 210 -12 q 125 14 150 -7 q 94 90 94 39 q 123 169 94 139 q 199 199 151 199 q 292 154 261 199 q 318 51 318 115 z "},"…":{"ha":1329,"x_min":113,"x_max":1217,"o":"m 219 194 q 298 162 267 194 q 329 83 329 129 q 295 9 329 39 q 215 -21 261 -21 q 144 12 175 -21 q 113 86 113 44 q 144 161 113 128 q 219 194 176 194 m 663 196 q 742 164 710 196 q 774 85 774 132 q 740 10 774 40 q 660 -19 706 -19 q 587 13 618 -19 q 556 88 556 46 q 588 163 556 129 q 663 196 619 196 m 1107 197 q 1185 165 1153 197 q 1217 86 1217 133 q 1183 12 1217 42 q 1103 -18 1149 -18 q 1030 15 1061 -18 q 999 89 999 47 q 1031 164 999 131 q 1107 197 1063 197 z "},"†":{"ha":663,"x_min":25,"x_max":638,"o":"m 308 -190 l 308 -157 q 288 189 308 69 q 226 403 267 308 q 310 631 310 506 q 185 586 279 631 q 106 564 138 564 q 47 592 68 564 q 25 660 25 621 q 53 720 25 699 q 121 742 81 742 q 215 710 156 742 q 311 678 275 678 q 290 765 311 718 q 242 899 242 876 q 267 965 242 936 q 329 994 292 994 q 396 965 369 994 q 422 894 422 936 q 388 790 422 863 q 353 676 353 718 q 449 710 388 676 q 546 743 510 743 q 612 719 586 743 q 638 654 638 694 q 615 591 638 618 q 556 564 592 564 q 453 597 518 564 q 353 629 388 629 q 374 512 353 568 q 436 404 396 456 q 364 111 381 272 q 354 -190 354 17 l 308 -190 z "},"‡":{"ha":663,"x_min":25,"x_max":639,"o":"m 422 896 q 388 790 422 864 q 353 676 353 717 q 425 697 383 676 q 544 743 517 743 q 612 719 585 743 q 639 656 639 694 q 616 592 639 619 q 556 564 593 564 q 453 597 518 564 q 353 629 388 629 q 374 512 353 568 q 436 403 396 456 q 374 294 396 351 q 353 175 353 238 q 478 221 383 175 q 557 243 524 243 q 616 215 594 243 q 638 146 638 186 q 610 85 638 107 q 542 63 582 63 q 471 83 511 63 q 354 129 382 129 q 388 15 354 88 q 422 -97 422 -57 q 396 -160 422 -132 q 333 -187 369 -187 q 267 -159 293 -187 q 242 -90 242 -131 q 289 43 242 -62 q 311 129 311 93 q 215 96 276 129 q 117 63 154 63 q 52 87 79 63 q 25 149 25 111 q 48 216 25 190 q 111 242 71 242 q 213 210 149 242 q 311 175 278 178 q 290 293 311 239 q 226 403 268 347 q 288 512 267 456 q 310 632 310 568 q 185 586 279 632 q 106 564 139 564 q 47 593 69 564 q 25 661 25 622 q 53 721 25 699 q 121 743 81 743 q 217 710 157 743 q 310 678 276 678 q 276 794 310 722 q 242 899 242 867 q 267 965 242 936 q 329 994 292 994 q 396 965 369 994 q 422 896 422 936 z "},"ˆ":{"ha":440,"x_min":17,"x_max":424,"o":"m 274 1025 l 424 796 l 419 792 l 221 926 l 21 792 l 17 796 l 167 1025 l 274 1025 z "},"‰":{"ha":1329,"x_min":8,"x_max":1321,"o":"m 1156 481 q 1276 430 1231 481 q 1321 304 1321 379 q 1257 92 1321 192 q 1078 -21 1185 -21 q 940 39 994 -21 q 886 183 886 99 q 967 386 886 292 q 1156 481 1049 481 m 1038 133 q 1056 69 1038 96 q 1111 42 1074 42 q 1232 143 1179 42 q 1278 307 1278 231 q 1261 381 1278 349 q 1203 421 1240 421 q 1088 304 1144 421 q 1038 133 1038 201 m 592 -19 q 452 38 504 -19 q 400 185 400 96 q 481 388 400 294 q 669 482 561 482 q 789 432 744 482 q 833 306 833 382 q 771 93 833 192 q 592 -19 700 -19 m 551 133 q 569 69 551 96 q 625 42 588 42 q 746 142 692 42 q 793 301 793 229 q 776 378 793 344 q 717 421 756 421 q 601 304 658 421 q 551 133 551 201 m 735 994 l 204 -19 l 121 -19 l 597 881 q 548 861 572 867 q 499 856 524 856 q 432 860 469 856 q 435 824 435 842 q 435 788 435 806 q 374 583 435 678 q 200 476 304 476 q 61 535 114 476 q 8 682 8 593 q 90 888 8 796 q 286 979 172 979 q 368 954 332 979 q 411 918 374 950 q 482 900 440 900 q 582 926 535 900 q 664 994 619 947 l 735 994 m 324 918 q 208 803 264 918 q 158 631 158 700 q 178 566 158 593 q 235 539 197 539 q 353 643 307 539 q 390 811 390 728 q 375 879 390 867 q 324 918 349 899 z "},"Š":{"ha":811,"x_min":50,"x_max":764,"o":"m 111 364 q 229 150 151 238 q 439 40 325 40 q 560 82 511 40 q 608 194 608 124 q 467 350 608 290 q 203 458 335 404 q 61 697 61 543 q 147 910 61 826 q 363 993 233 993 q 450 976 399 993 q 588 940 560 940 q 601 944 592 940 q 621 953 610 947 l 638 994 l 699 994 l 706 665 l 644 665 q 538 844 606 772 q 354 932 454 932 q 258 897 299 932 q 217 806 217 861 q 358 651 217 710 q 622 544 490 597 q 764 293 764 458 q 671 64 764 153 q 438 -25 578 -25 q 314 1 385 -25 q 172 56 243 28 q 133 31 146 56 q 119 -21 119 6 l 58 -21 l 50 364 l 111 364 m 354 1071 l 203 1300 l 207 1304 l 406 1169 l 606 1304 l 610 1300 l 460 1071 l 354 1071 z "},"‹":{"ha":368,"x_min":31,"x_max":340,"o":"m 319 597 q 338 583 340 600 q 297 503 338 563 q 183 350 267 458 q 297 200 257 261 q 338 117 338 139 q 319 103 338 103 q 182 217 314 103 q 31 350 57 325 q 319 597 175 474 z "},"Œ":{"ha":1329,"x_min":10,"x_max":1290,"o":"m 596 781 q 565 888 596 849 q 464 932 531 932 q 326 799 367 932 q 299 583 299 708 q 297 508 299 563 q 296 443 296 453 q 324 179 296 272 q 465 40 365 40 q 565 92 531 40 q 596 206 596 138 l 596 781 m 1275 647 l 1214 647 q 1131 831 1194 760 q 949 910 1058 910 q 869 889 894 910 q 844 814 844 868 l 844 531 q 976 579 942 531 q 1015 719 1000 613 l 1076 719 l 1076 282 l 1014 282 q 978 422 996 394 q 844 471 944 471 l 843 156 q 867 80 843 100 q 949 60 892 60 q 1140 147 1064 60 q 1229 344 1207 224 l 1290 344 l 1275 -1 l 683 -1 q 586 -12 651 -1 q 489 -24 521 -24 q 142 120 274 -24 q 10 482 10 264 q 141 850 10 708 q 497 992 272 992 q 613 978 524 992 q 683 971 657 971 l 1268 971 l 1275 647 z "},"":{"ha":728,"x_min":14,"x_max":703,"o":"m 703 496 q 621 417 672 444 q 510 389 569 389 q 393 411 460 389 q 200 461 243 461 q 131 439 163 461 q 75 382 99 417 l 15 419 q 103 497 53 468 q 211 526 153 526 q 324 506 261 526 q 511 457 471 457 q 651 529 600 457 l 703 496 m 701 294 q 619 215 671 243 q 508 188 568 188 q 392 210 458 188 q 199 260 242 260 q 128 238 160 260 q 74 181 97 217 l 14 218 q 101 296 51 267 q 210 325 151 325 q 322 304 260 325 q 510 256 469 256 q 650 328 599 256 l 701 294 z "},"":{"ha":813,"x_min":4,"x_max":810,"o":"m 810 0 l 4 0 l 433 924 l 810 0 m 97 68 l 642 68 l 385 689 l 97 68 z "},"":{"ha":656,"x_min":21,"x_max":621,"o":"m 281 0 l 21 506 l 281 999 l 361 999 l 621 506 l 361 0 l 281 0 m 321 922 l 104 506 l 321 76 l 538 506 l 321 922 z "},"":{"ha":906,"x_min":0,"x_max":0,"o":""},"‘":{"ha":368,"x_min":79,"x_max":306,"o":"m 79 708 q 151 878 79 797 q 303 994 204 938 q 304 977 303 993 q 304 953 306 961 l 297 932 q 217 868 253 901 q 163 789 163 818 q 213 769 163 782 q 274 747 263 756 q 293 719 285 738 q 301 668 301 700 q 274 589 301 618 q 197 560 246 560 q 108 602 136 560 q 79 708 79 644 z "},"’":{"ha":368,"x_min":61,"x_max":288,"o":"m 288 846 q 215 675 288 756 q 64 558 163 617 l 61 601 l 68 622 q 149 685 110 649 q 203 765 203 736 q 174 779 203 771 q 93 807 101 800 q 72 842 79 819 q 64 886 64 864 q 92 965 64 935 q 168 994 121 994 q 261 950 231 994 q 288 846 288 911 z "},"“":{"ha":738,"x_min":94,"x_max":644,"o":"m 418 708 q 490 878 418 797 q 642 994 543 938 l 644 953 l 638 933 q 557 869 589 899 q 503 789 503 819 q 552 769 503 782 q 614 745 601 756 q 634 713 626 735 q 642 668 642 690 q 614 589 642 618 q 536 560 586 560 q 447 601 475 560 q 418 708 418 643 m 94 708 q 167 878 94 799 q 318 994 221 938 l 321 953 l 313 932 q 212 849 240 881 q 179 789 183 818 l 186 775 q 281 753 256 768 q 318 668 318 729 q 290 590 318 619 q 213 560 261 560 q 123 602 151 560 q 94 708 94 644 z "},"”":{"ha":738,"x_min":92,"x_max":642,"o":"m 318 846 q 246 675 318 756 q 94 558 193 617 q 93 601 92 588 l 99 622 q 179 685 140 649 q 233 765 233 736 q 204 779 233 771 q 124 807 132 800 q 102 842 110 819 q 94 886 94 864 q 123 965 94 935 q 199 994 151 994 q 292 950 261 994 q 318 846 318 911 m 642 844 q 569 674 642 754 q 418 557 517 615 q 416 581 417 571 q 417 600 415 592 l 424 619 q 504 682 471 651 q 557 764 557 732 q 548 776 557 774 q 529 779 539 779 q 447 804 471 785 q 418 885 418 828 q 447 963 418 933 q 522 993 475 993 q 615 949 585 993 q 642 844 642 910 z "},"•":{"ha":804,"x_min":160,"x_max":644,"o":"m 160 486 q 231 657 160 585 q 401 729 301 729 q 573 658 501 729 q 644 486 644 586 q 573 315 644 386 q 401 243 501 243 q 231 314 301 243 q 160 486 160 385 z "},"–":{"ha":663,"x_min":-3,"x_max":665,"o":"m -3 289 l -3 411 l 665 411 l 665 289 l -3 289 z "},"—":{"ha":1329,"x_min":-3,"x_max":1332,"o":"m -3 289 l -3 411 l 1332 411 l 1332 289 l -3 289 z "},"˜":{"ha":440,"x_min":3,"x_max":440,"o":"m 440 974 q 397 865 429 907 q 297 814 358 814 q 221 835 263 814 q 118 881 128 881 q 74 862 92 881 q 49 815 57 843 l 3 815 q 46 921 15 881 q 143 972 85 972 q 214 953 175 972 q 325 907 306 907 q 368 926 351 907 q 394 974 385 946 l 440 974 z "},"™":{"ha":1329,"x_min":38,"x_max":1292,"o":"m 553 828 l 503 829 q 481 901 503 881 q 406 921 460 921 l 349 921 l 349 536 q 353 497 349 513 q 374 476 357 481 l 433 474 l 433 431 l 149 431 l 150 474 l 176 474 q 222 484 211 474 q 232 540 232 494 l 232 921 l 183 921 q 108 901 129 921 q 86 828 86 881 l 38 828 l 38 972 l 553 972 l 553 828 m 604 972 l 803 972 l 950 632 l 1090 972 l 1292 972 l 1292 932 l 1275 932 q 1231 924 1247 932 q 1225 886 1225 907 l 1225 528 q 1230 495 1225 506 q 1244 479 1235 485 q 1292 474 1263 474 l 1292 431 l 1042 431 l 1042 474 q 1098 484 1086 474 q 1110 539 1110 494 l 1110 882 l 925 431 l 907 431 l 715 882 l 711 514 q 722 485 711 493 q 778 474 733 478 l 778 431 l 593 431 l 594 475 q 639 479 628 475 q 661 514 661 488 l 660 890 q 652 924 660 917 q 622 932 644 932 l 604 932 l 604 972 z "},"š":{"ha":663,"x_min":129,"x_max":538,"o":"m 279 792 l 129 1021 l 133 1025 l 332 890 l 532 1025 l 538 1021 l 386 792 l 279 792 z "},"›":{"ha":368,"x_min":31,"x_max":338,"o":"m 50 103 q 31 117 31 103 q 72 199 31 138 q 188 350 114 261 q 75 499 117 438 q 31 582 33 560 l 50 597 q 338 350 193 474 q 239 258 288 304 q 50 103 68 103 z "},"œ":{"ha":1181,"x_min":50,"x_max":1122,"o":"m 907 413 l 907 469 q 893 585 907 543 q 811 653 869 653 q 731 586 753 653 q 715 469 715 542 l 715 413 l 907 413 m 371 715 q 596 621 504 715 q 701 689 646 664 q 818 714 757 714 q 1046 601 963 714 q 1122 351 1122 499 l 715 351 l 713 272 q 742 131 713 183 q 863 63 779 63 q 981 104 929 63 q 1058 207 1026 140 l 1115 181 q 1003 32 1078 86 q 829 -22 929 -22 q 706 -1 763 -22 q 601 67 649 21 q 371 -22 504 -22 q 133 90 222 -22 q 50 349 50 196 q 135 601 50 496 q 371 715 226 715 m 278 201 q 308 72 278 113 q 382 38 335 38 q 467 93 440 38 q 486 201 486 135 l 486 479 q 469 592 486 553 q 382 651 444 651 q 310 617 335 651 q 278 481 278 574 l 278 201 z "},"Ÿ":{"ha":1107,"x_min":42,"x_max":1065,"o":"m 42 972 l 593 972 l 593 911 q 517 906 542 911 q 464 861 464 894 q 549 671 464 835 q 658 464 603 567 q 760 642 724 574 q 828 825 828 768 q 792 890 828 869 q 707 911 756 911 l 707 972 l 1065 972 l 1065 911 q 963 867 1006 911 q 899 771 935 838 q 751 489 825 629 q 688 369 729 444 l 688 158 q 728 71 688 89 q 831 61 750 61 l 831 0 l 268 0 l 267 61 l 296 61 q 379 74 358 61 q 411 158 411 93 l 411 375 q 357 481 383 428 q 249 685 303 582 q 185 813 196 788 q 129 885 158 863 q 42 911 94 911 l 42 972 m 597 1161 q 622 1217 597 1194 q 679 1240 646 1240 q 734 1217 711 1240 q 757 1161 757 1194 q 733 1104 757 1128 q 676 1081 710 1081 q 621 1104 644 1081 q 597 1161 597 1128 m 350 1161 q 374 1219 350 1197 q 433 1242 397 1242 q 487 1217 464 1242 q 510 1160 510 1193 q 487 1103 510 1126 q 429 1081 464 1081 q 374 1104 397 1081 q 350 1161 350 1128 z "}," ":{"ha":371,"x_min":0,"x_max":0,"o":""},"¡":{"ha":515,"x_min":149,"x_max":367,"o":"m 288 404 l 288 319 q 326 86 288 219 q 365 -106 365 -47 q 339 -198 365 -162 q 257 -233 313 -233 q 169 -190 196 -233 q 149 -89 149 -156 q 167 11 149 -44 q 204 119 186 67 q 222 219 217 163 q 226 333 226 275 l 226 404 l 288 404 m 257 779 q 333 747 300 779 q 367 671 367 715 q 332 594 367 626 q 253 563 297 563 q 181 596 211 563 q 150 671 150 629 q 182 746 150 713 q 257 779 214 779 z "},"¢":{"ha":738,"x_min":43,"x_max":679,"o":"m 593 650 q 668 506 668 597 q 640 426 668 457 q 564 394 611 394 q 525 401 542 394 q 496 422 508 407 l 354 88 q 392 67 372 72 q 439 61 413 61 q 524 83 485 61 q 628 186 569 110 l 674 140 q 544 20 615 63 q 388 -22 472 -22 q 310 -14 350 -22 l 225 -212 l 157 -212 l 250 6 q 98 133 153 46 q 43 329 43 221 q 128 597 43 489 q 374 715 219 715 q 463 708 421 715 q 540 681 504 700 l 614 856 l 679 856 l 593 650 m 460 493 l 456 504 q 497 576 456 546 q 521 606 518 592 q 488 635 514 626 q 436 644 463 644 q 293 526 329 644 q 272 321 272 460 q 280 225 272 267 q 308 143 288 183 l 460 493 z "},"£":{"ha":738,"x_min":17,"x_max":708,"o":"m 17 449 l 17 510 l 140 510 q 124 593 132 550 q 115 674 115 636 q 193 899 115 818 q 415 979 271 979 q 596 938 524 979 q 685 785 685 886 q 654 703 685 738 q 576 668 624 668 q 494 697 531 668 q 458 771 458 726 q 490 844 458 811 q 522 882 521 876 q 492 908 518 900 q 442 917 467 917 q 347 879 378 917 q 315 776 315 842 q 332 647 315 717 q 365 510 349 576 l 569 510 l 569 449 l 374 449 q 340 283 374 344 q 243 146 285 206 q 344 174 335 172 q 410 179 374 179 q 478 171 432 179 q 547 163 524 163 q 628 187 606 163 q 657 271 651 211 l 708 272 q 674 76 708 147 q 510 -22 625 -22 q 388 4 453 -22 q 246 65 317 35 q 178 22 214 65 q 97 -21 142 -21 q 41 5 64 -21 q 18 64 18 31 q 101 151 18 119 q 185 274 185 183 q 178 353 185 317 q 156 449 172 389 l 17 449 z "},"¤":{"ha":738,"x_min":31,"x_max":708,"o":"m 89 281 q 40 451 40 363 q 89 626 40 546 l 31 683 l 138 793 l 197 733 q 383 785 282 785 q 467 771 425 785 q 546 733 508 757 l 604 793 l 708 683 l 649 626 q 700 454 700 547 q 688 362 700 404 q 650 281 676 319 l 708 222 l 604 114 l 546 174 q 462 135 504 149 q 374 122 419 122 q 196 174 278 122 l 138 114 l 31 222 l 89 281 m 532 453 q 484 569 532 522 q 365 615 436 615 q 253 565 299 615 q 208 449 208 515 q 257 338 208 385 q 369 290 306 290 q 485 338 438 290 q 532 453 532 385 z "},"¥":{"ha":738,"x_min":-3,"x_max":740,"o":"m 17 371 l 17 433 l 213 433 l 114 813 q 74 888 100 864 q -3 911 49 911 l -3 972 l 408 972 l 408 913 q 376 910 386 913 q 353 899 365 908 q 347 881 350 889 q 344 871 344 872 q 386 672 344 815 q 447 467 417 569 q 481 606 456 507 q 518 840 518 756 q 506 892 518 872 q 463 911 494 911 l 463 972 l 740 972 l 739 913 q 544 640 597 913 q 511 433 528 536 l 714 433 l 714 371 l 503 371 l 503 304 l 714 304 l 714 243 l 503 243 l 503 158 q 546 72 503 92 q 647 61 571 61 l 647 0 l 83 0 l 83 61 q 202 82 176 61 q 228 190 228 103 l 228 243 l 17 243 l 17 304 l 228 304 l 228 371 l 17 371 z "},"¦":{"ha":804,"x_min":324,"x_max":481,"o":"m 324 1025 l 481 1025 l 481 628 l 324 628 l 324 1025 m 324 397 l 481 397 l 481 0 l 324 0 l 324 397 z "},"§":{"ha":663,"x_min":32,"x_max":629,"o":"m 242 553 q 183 527 208 553 q 157 468 157 501 q 259 328 157 417 q 415 240 361 240 q 481 268 454 240 q 507 335 507 296 q 401 469 507 385 q 242 553 294 553 m 339 994 q 483 957 419 994 q 560 839 560 913 q 531 770 560 796 q 458 744 503 744 q 394 769 421 744 q 368 831 368 794 q 386 876 368 860 q 422 913 418 907 q 393 935 418 926 q 349 944 368 944 q 278 924 310 944 q 247 865 247 903 q 346 736 247 811 q 531 592 515 607 q 629 383 629 494 q 570 244 629 293 q 419 196 511 196 q 508 103 496 119 q 549 -17 549 49 q 468 -156 549 -107 q 304 -196 401 -196 q 171 -156 232 -196 q 101 -42 101 -110 q 128 22 101 -6 q 192 50 154 50 q 261 25 231 50 q 292 -37 292 0 q 264 -87 292 -67 q 236 -115 236 -108 q 269 -140 236 -135 q 335 -146 301 -146 q 390 -124 367 -146 q 413 -71 413 -103 q 314 60 413 -18 q 132 207 153 186 q 32 415 32 307 q 87 545 32 493 q 219 597 142 597 q 242 596 235 597 q 149 679 175 644 q 110 797 110 731 q 176 942 110 890 q 339 994 243 994 z "},"¨":{"ha":440,"x_min":17,"x_max":424,"o":"m 265 882 q 288 938 265 915 q 346 961 311 961 q 401 938 378 961 q 424 882 424 915 q 401 826 424 850 q 344 801 378 801 q 289 825 313 801 q 265 882 265 849 m 17 882 q 40 940 17 918 q 100 963 64 963 q 153 938 132 963 q 175 881 175 914 q 152 824 175 847 q 96 801 129 801 q 40 825 64 801 q 17 882 17 849 z "},"©":{"ha":1063,"x_min":35,"x_max":1026,"o":"m 35 488 q 179 844 35 694 q 531 994 324 994 q 881 845 736 994 q 1026 489 1026 696 q 882 129 1026 281 q 531 -22 738 -22 q 180 128 325 -22 q 35 488 35 279 m 929 488 q 813 774 929 653 q 531 896 697 896 q 249 775 365 896 q 132 488 132 654 q 247 197 132 319 q 531 75 363 75 q 813 198 697 75 q 929 488 929 321 m 740 571 l 679 569 q 639 657 656 635 q 554 697 608 697 q 446 632 483 697 q 414 501 414 576 q 450 342 414 407 q 582 260 496 260 q 658 285 625 260 q 714 346 681 301 l 757 329 q 661 229 731 264 q 522 199 600 199 q 339 278 408 199 q 269 475 269 358 q 351 683 269 607 q 565 758 432 758 q 658 745 601 758 q 740 717 715 732 l 740 571 z "},"ª":{"ha":442,"x_min":1,"x_max":442,"o":"m 243 796 q 152 769 174 789 q 131 711 131 749 q 144 671 131 688 q 182 654 158 654 q 233 688 219 654 q 243 754 243 711 l 243 796 m 243 839 l 244 907 q 224 965 244 947 q 163 982 204 982 q 125 972 138 982 q 138 948 126 967 q 149 918 149 929 q 128 881 149 894 q 83 868 108 868 q 42 884 61 868 q 24 922 24 900 q 85 1003 24 975 q 193 1025 133 1025 q 353 964 308 1025 q 386 817 386 918 q 383 728 386 790 q 381 661 381 667 q 403 644 381 644 q 426 647 413 644 l 442 636 q 404 599 433 610 q 340 588 375 588 q 254 651 274 588 q 192 603 221 619 q 114 581 153 581 q 34 608 67 581 q 1 682 1 635 q 88 803 1 763 q 243 839 139 826 m 1 481 l 1 538 l 440 538 l 440 481 l 1 481 z "},"«":{"ha":738,"x_min":103,"x_max":635,"o":"m 615 597 q 633 583 633 597 q 593 503 633 563 q 476 350 553 443 q 568 235 535 279 q 635 118 635 144 q 614 103 635 107 q 472 218 582 119 q 326 351 417 268 q 521 526 447 461 q 615 597 601 597 m 390 597 q 410 583 410 597 q 369 503 410 563 q 253 350 329 443 q 369 199 328 260 q 410 118 410 139 q 404 110 410 115 q 390 103 399 106 q 249 218 358 119 q 103 351 193 268 q 297 526 224 461 q 390 597 378 597 z "},"¬":{"ha":804,"x_min":64,"x_max":740,"o":"m 583 390 l 64 390 l 64 547 l 740 547 l 740 131 l 583 131 l 583 390 z "},"­":{"ha":804,"x_min":63,"x_max":740,"o":"m 63 418 l 740 418 l 740 261 l 63 261 l 63 418 z "},"®":{"ha":1063,"x_min":35,"x_max":1026,"o":"m 35 488 q 179 844 35 694 q 531 994 324 994 q 881 845 736 994 q 1026 489 1026 696 q 882 129 1026 281 q 531 -22 738 -22 q 180 128 325 -22 q 35 488 35 279 m 929 488 q 813 774 929 653 q 531 896 697 896 q 249 775 365 896 q 132 488 132 654 q 247 197 132 319 q 531 75 363 75 q 813 198 697 75 q 929 488 929 321 m 306 767 l 531 767 q 700 728 653 767 q 740 628 740 694 q 705 540 740 576 q 618 492 669 503 q 716 374 667 481 q 803 264 765 267 l 803 228 l 717 226 q 597 345 640 226 q 529 464 554 464 l 482 467 l 482 304 l 486 274 q 501 266 493 268 q 536 264 510 264 l 536 228 l 303 228 l 303 264 q 353 269 332 264 q 363 299 363 285 l 363 703 l 351 721 l 306 725 l 306 767 m 482 510 l 508 507 q 590 538 558 507 q 622 619 622 568 q 596 696 622 668 q 521 724 569 724 l 488 721 l 482 708 l 482 510 z "},"¯":{"ha":440,"x_min":19,"x_max":421,"o":"m 421 924 l 421 840 l 19 840 l 19 924 l 421 924 z "},"°":{"ha":531,"x_min":64,"x_max":465,"o":"m 265 575 q 123 634 182 575 q 64 776 64 693 q 123 919 64 860 q 265 978 182 978 q 407 919 349 978 q 465 778 465 861 q 407 635 465 694 q 265 575 349 575 m 265 664 q 346 694 315 664 q 376 776 376 725 q 344 857 376 826 q 264 888 313 888 q 185 857 215 888 q 154 776 154 826 q 185 696 154 728 q 265 664 215 664 z "},"±":{"ha":804,"x_min":64,"x_max":740,"o":"m 324 679 l 481 679 l 481 519 l 740 519 l 740 363 l 481 363 l 481 201 l 324 201 l 324 363 l 64 363 l 64 519 l 324 519 l 324 679 m 64 158 l 740 158 l 740 0 l 64 0 l 64 158 z "},"²":{"ha":440,"x_min":10,"x_max":433,"o":"m 433 575 q 399 440 433 496 q 283 376 358 376 q 208 401 250 376 q 97 456 119 456 q 70 444 78 456 q 63 415 63 433 q 64 390 63 399 q 68 376 68 381 l 10 378 q 75 563 10 479 q 197 689 136 625 q 264 835 264 763 q 167 935 264 935 q 115 922 144 935 q 82 890 86 910 l 89 882 q 144 863 125 879 q 164 811 164 847 q 142 765 164 781 q 92 749 121 749 q 33 773 56 749 q 10 835 10 797 q 79 946 10 907 q 214 978 136 978 q 354 944 300 978 q 419 822 419 904 q 338 683 419 743 q 181 597 317 668 q 89 513 94 553 l 97 503 q 183 518 140 518 q 235 513 204 518 q 321 500 304 500 q 369 520 353 500 q 393 575 386 540 l 433 575 z "},"³":{"ha":440,"x_min":13,"x_max":429,"o":"m 226 978 q 356 944 301 978 q 419 835 419 906 q 361 736 419 775 q 247 690 321 710 q 369 642 328 672 q 429 529 429 599 q 356 411 429 453 q 213 376 294 376 q 85 404 140 376 q 13 506 13 440 q 35 561 13 540 q 94 582 57 582 q 148 565 128 582 q 168 514 168 547 q 144 467 168 481 q 113 443 121 453 q 138 424 119 429 q 176 419 156 419 q 257 458 233 419 q 275 550 275 489 q 249 650 275 631 q 146 664 229 664 l 129 671 l 124 685 l 132 701 q 161 708 144 708 q 196 706 185 706 q 256 743 240 706 q 265 821 265 767 q 250 900 265 874 q 181 935 231 935 q 145 932 157 935 q 128 915 133 929 q 163 889 144 901 q 178 847 178 875 q 157 797 178 815 q 104 779 136 779 q 53 801 74 779 q 32 856 32 824 q 99 954 32 924 q 226 978 150 978 z "},"´":{"ha":440,"x_min":128,"x_max":432,"o":"m 128 786 q 240 926 194 872 q 372 1029 328 1029 q 414 1011 396 1029 q 432 968 432 993 q 331 874 432 944 q 200 786 265 829 l 128 786 z "},"µ":{"ha":886,"x_min":38,"x_max":824,"o":"m 403 82 q 496 138 458 82 q 529 244 529 186 l 528 551 q 508 615 528 599 q 442 632 489 632 l 443 693 q 597 698 526 693 q 738 715 668 703 l 738 142 q 824 61 738 61 l 824 0 q 660 -5 711 0 q 549 -22 608 -10 l 549 132 q 464 25 496 51 q 336 -21 410 -21 l 335 -76 q 358 -152 335 -132 q 438 -172 381 -172 l 438 -233 l 38 -233 l 38 -174 q 106 -151 86 -174 q 126 -76 126 -128 l 126 551 q 107 615 126 599 q 40 632 88 632 l 40 693 q 194 698 124 693 q 336 715 265 703 l 335 201 q 344 125 335 151 q 403 82 361 82 z "},"¶":{"ha":935,"x_min":124,"x_max":756,"o":"m 756 994 l 756 918 l 708 918 l 708 -233 l 626 -233 l 626 918 l 425 918 l 425 -233 l 343 -233 l 344 450 q 183 538 242 467 q 124 714 124 610 q 210 922 124 849 q 433 994 296 994 l 756 994 z "},"·":{"ha":368,"x_min":75,"x_max":292,"o":"m 182 447 q 260 414 228 447 q 292 335 292 381 q 258 262 292 292 q 179 232 224 232 q 106 265 138 232 q 75 339 75 297 q 107 414 75 381 q 182 447 139 447 z "},"¸":{"ha":440,"x_min":51,"x_max":347,"o":"m 172 -3 l 229 -3 l 190 -89 l 224 -85 q 315 -106 283 -85 q 347 -185 347 -128 q 286 -274 347 -246 q 169 -294 240 -294 q 51 -274 108 -294 l 75 -224 q 165 -244 121 -244 q 214 -229 193 -244 q 235 -186 235 -214 q 216 -147 235 -160 q 169 -135 197 -135 q 154 -137 161 -135 q 132 -146 147 -139 l 114 -133 l 172 -3 z "},"¹":{"ha":440,"x_min":36,"x_max":403,"o":"m 403 433 l 403 390 l 38 390 l 36 432 l 58 432 q 119 440 100 432 q 149 490 149 453 l 149 815 q 133 867 149 856 q 82 878 118 878 l 58 878 l 40 878 l 40 919 q 192 949 93 919 q 290 978 240 963 l 290 490 q 315 442 290 454 q 369 433 332 433 l 403 433 z "},"º":{"ha":442,"x_min":11,"x_max":432,"o":"m 432 803 q 372 651 432 714 q 222 588 311 588 q 72 649 131 588 q 13 804 13 711 q 69 961 13 899 q 221 1024 126 1024 q 373 960 314 1024 q 432 803 432 897 m 160 757 q 167 679 160 704 q 218 631 181 631 q 271 676 257 631 q 279 754 279 703 l 281 858 q 272 935 281 908 q 219 982 257 982 q 168 935 182 982 q 160 856 160 907 l 160 757 m 11 481 l 11 538 l 431 538 l 431 481 l 11 481 z "},"»":{"ha":738,"x_min":104,"x_max":635,"o":"m 124 103 q 104 117 104 103 q 197 269 104 147 q 260 350 203 276 q 171 464 215 407 q 104 582 108 549 l 122 597 q 269 478 185 556 q 413 350 386 371 q 307 256 389 329 q 124 103 192 151 m 346 103 q 326 117 326 103 q 419 269 326 147 q 482 350 425 276 q 393 464 438 407 q 326 582 331 549 l 344 597 q 492 478 407 556 q 635 350 608 371 q 529 256 611 329 q 346 103 414 151 z "},"¼":{"ha":1108,"x_min":39,"x_max":957,"o":"m 806 978 l 888 978 l 301 0 l 218 0 l 806 978 m 522 208 l 801 588 l 881 588 l 881 210 l 957 210 l 957 160 l 881 160 l 881 94 q 901 57 881 65 q 957 49 922 49 l 957 0 l 650 0 l 649 47 q 707 53 689 47 q 739 94 739 63 l 739 160 l 522 160 l 522 208 m 739 210 l 739 432 l 571 210 l 739 210 m 403 433 l 403 390 l 39 390 l 39 432 q 105 435 85 432 q 143 458 125 438 q 149 485 149 475 l 150 815 q 135 867 150 856 q 83 878 119 878 l 60 878 l 40 878 l 40 919 q 190 949 92 919 q 290 978 289 978 l 290 485 q 315 442 290 454 q 368 433 332 433 l 403 433 z "},"½":{"ha":1108,"x_min":39,"x_max":1083,"o":"m 806 978 l 888 978 l 301 0 l 218 0 l 806 978 m 660 0 q 725 182 660 99 q 849 313 786 247 q 915 464 915 388 q 888 533 915 507 q 817 558 861 558 q 765 546 793 558 q 732 513 736 533 q 789 489 775 496 q 814 433 814 475 q 792 388 814 404 q 739 372 771 372 q 683 398 706 372 q 660 458 660 424 q 729 568 660 529 q 865 601 789 601 q 1004 568 951 601 q 1068 447 1068 528 q 997 314 1068 365 q 854 239 992 310 q 739 136 765 193 l 747 128 q 787 139 765 136 q 833 142 808 142 q 885 136 854 142 q 971 124 954 124 q 1019 144 1001 124 q 1043 197 1038 165 l 1083 197 q 1049 64 1083 118 q 933 0 1008 0 q 858 25 899 0 q 744 79 769 79 q 719 70 726 79 q 711 44 711 61 q 714 19 711 31 q 718 0 717 7 l 660 0 m 403 433 l 403 390 l 39 390 l 39 432 q 105 435 85 432 q 143 458 125 438 q 149 485 149 475 l 150 815 q 135 867 150 856 q 83 878 119 878 l 60 878 l 40 878 l 40 919 q 190 949 92 919 q 290 978 289 978 l 290 485 q 315 442 290 454 q 368 433 332 433 l 403 433 z "},"¾":{"ha":1108,"x_min":13,"x_max":957,"o":"m 806 978 l 888 978 l 301 0 l 218 0 l 806 978 m 522 208 l 801 588 l 881 588 l 881 210 l 957 210 l 957 156 l 881 156 l 881 94 q 899 47 881 57 q 957 38 917 38 l 957 0 l 650 0 l 649 38 q 711 43 697 38 q 739 94 739 54 l 739 156 l 522 156 l 522 208 m 739 210 l 739 432 l 571 210 l 739 210 m 226 978 q 356 944 301 978 q 419 835 419 906 q 361 736 419 775 q 247 690 321 710 q 369 642 328 672 q 429 529 429 599 q 356 411 429 453 q 213 376 294 376 q 85 404 140 376 q 13 506 13 440 q 35 561 13 540 q 94 582 57 582 q 148 565 128 582 q 168 514 168 547 q 144 467 168 481 q 113 443 121 453 q 138 424 119 429 q 176 419 156 419 q 257 458 233 419 q 275 550 275 489 q 249 650 275 631 q 146 664 229 664 l 129 671 l 124 685 l 132 701 q 161 708 144 708 q 196 706 185 706 q 256 743 240 706 q 265 821 265 767 q 250 900 265 874 q 181 935 231 935 q 145 932 157 935 q 128 915 133 929 q 163 889 144 901 q 178 847 178 875 q 157 797 178 815 q 104 779 136 779 q 53 801 74 779 q 32 856 32 824 q 99 954 32 924 q 226 978 150 978 z "},"¿":{"ha":738,"x_min":94,"x_max":679,"o":"m 442 415 l 439 294 q 371 157 439 256 q 303 -22 303 58 q 338 -133 303 -92 q 443 -174 374 -174 q 490 -168 468 -174 q 511 -146 511 -162 q 489 -111 511 -139 q 467 -51 467 -83 q 499 16 467 -10 q 575 42 532 42 q 651 13 624 42 q 679 -67 679 -17 q 578 -199 679 -154 q 397 -233 499 -233 q 196 -192 274 -233 q 94 -24 94 -137 q 168 124 94 71 q 306 213 236 168 q 381 415 381 282 l 442 415 m 411 779 q 489 746 457 779 q 521 667 521 713 q 487 592 521 622 q 408 563 453 563 q 335 595 367 563 q 304 671 304 628 q 336 746 304 713 q 411 779 368 779 z "},"À":{"ha":1107,"x_min":32,"x_max":1074,"o":"m 582 397 l 457 794 l 321 397 l 582 397 m 33 0 l 32 61 q 142 124 103 76 q 199 240 171 160 l 447 972 l 669 972 l 939 165 q 991 91 954 121 q 1074 61 1028 61 l 1074 0 l 535 0 l 535 61 q 615 69 589 61 q 663 128 663 85 q 642 233 663 174 q 604 335 622 283 l 301 335 q 269 239 279 271 q 251 139 251 181 q 294 75 251 94 q 376 61 325 61 l 376 0 l 33 0 m 574 1065 q 404 1178 464 1133 q 340 1249 340 1226 q 358 1290 340 1274 q 401 1307 376 1307 q 532 1207 446 1307 q 644 1065 588 1136 l 574 1065 z "},"Á":{"ha":1107,"x_min":32,"x_max":1074,"o":"m 582 397 l 457 794 l 321 397 l 582 397 m 33 0 l 32 61 q 142 124 103 76 q 199 240 171 160 l 447 972 l 669 972 l 939 165 q 991 91 954 121 q 1074 61 1028 61 l 1074 0 l 535 0 l 535 61 q 615 69 589 61 q 663 128 663 85 q 642 233 663 174 q 604 335 622 283 l 301 335 q 269 239 279 271 q 251 139 251 181 q 294 75 251 94 q 376 61 325 61 l 376 0 l 33 0 m 475 1065 q 588 1207 542 1154 q 721 1308 674 1308 q 763 1290 746 1308 q 779 1249 779 1272 q 679 1153 779 1222 q 549 1065 614 1108 l 475 1065 z "},"Â":{"ha":1107,"x_min":32,"x_max":1074,"o":"m 582 397 l 457 794 l 321 397 l 582 397 m 33 0 l 32 61 q 142 124 103 76 q 199 240 171 160 l 447 972 l 669 972 l 939 165 q 991 91 954 121 q 1074 61 1028 61 l 1074 0 l 535 0 l 535 61 q 615 69 589 61 q 663 128 663 85 q 642 233 663 174 q 604 335 622 283 l 301 335 q 269 239 279 271 q 251 139 251 181 q 294 75 251 94 q 376 61 325 61 l 376 0 l 33 0 m 590 1304 l 740 1075 l 736 1071 l 538 1206 l 339 1071 l 332 1075 l 483 1304 l 590 1304 z "},"Ã":{"ha":1107,"x_min":32,"x_max":1074,"o":"m 582 397 l 457 794 l 321 397 l 582 397 m 33 0 l 32 61 q 142 124 103 76 q 199 240 171 160 l 447 972 l 669 972 l 939 165 q 991 91 954 121 q 1074 61 1028 61 l 1074 0 l 535 0 l 535 61 q 615 69 589 61 q 663 128 663 85 q 642 233 663 174 q 604 335 622 283 l 301 335 q 269 239 279 271 q 251 139 251 181 q 294 75 251 94 q 376 61 325 61 l 376 0 l 33 0 m 772 1253 q 731 1144 763 1188 q 631 1093 692 1093 q 531 1126 590 1093 q 450 1160 471 1160 q 406 1141 424 1160 q 382 1094 389 1122 l 333 1093 q 379 1199 350 1160 q 476 1251 418 1251 q 551 1232 511 1251 q 658 1186 647 1186 q 704 1207 686 1186 q 728 1253 715 1221 l 772 1253 z "},"Ä":{"ha":1107,"x_min":32,"x_max":1074,"o":"m 582 397 l 457 794 l 321 397 l 582 397 m 33 0 l 32 61 q 142 124 103 76 q 199 240 171 160 l 447 972 l 669 972 l 939 165 q 991 91 954 121 q 1074 61 1028 61 l 1074 0 l 535 0 l 535 61 q 615 69 589 61 q 663 128 663 85 q 642 233 663 174 q 604 335 622 283 l 301 335 q 269 239 279 271 q 251 139 251 181 q 294 75 251 94 q 376 61 325 61 l 376 0 l 33 0 m 564 1161 q 589 1217 564 1193 q 646 1240 614 1240 q 701 1217 678 1240 q 725 1161 725 1193 q 703 1104 725 1128 q 646 1081 681 1081 q 589 1104 614 1081 q 564 1161 564 1128 m 318 1161 q 341 1217 318 1194 q 397 1240 364 1240 q 454 1217 431 1240 q 478 1161 478 1193 q 455 1103 478 1126 q 397 1081 432 1081 q 342 1104 365 1081 q 318 1161 318 1128 z "},"Å":{"ha":1107,"x_min":33,"x_max":1074,"o":"m 583 397 l 457 794 l 321 397 l 583 397 m 35 0 l 33 61 q 143 124 104 76 q 200 240 172 160 l 447 972 l 669 972 l 939 165 q 991 91 954 121 q 1074 61 1028 61 l 1074 0 l 536 0 l 536 63 q 617 69 594 63 q 663 128 663 83 q 642 233 663 174 q 604 335 622 283 l 301 335 q 269 233 286 286 q 253 140 253 179 q 294 75 253 94 q 376 61 325 61 l 376 0 l 35 0 m 415 1203 q 456 1301 415 1260 q 554 1342 497 1342 q 650 1300 608 1342 q 692 1203 692 1258 q 651 1106 692 1147 q 554 1064 611 1064 q 457 1106 499 1064 q 415 1203 415 1147 m 482 1203 q 503 1152 482 1174 q 556 1131 525 1131 q 603 1152 583 1131 q 624 1204 624 1174 q 603 1253 624 1232 q 554 1274 582 1274 q 504 1253 526 1274 q 482 1203 482 1232 z "},"Æ":{"ha":1329,"x_min":-8,"x_max":1290,"o":"m 596 440 l 596 921 l 560 921 l 333 440 l 596 440 m 1015 283 q 992 397 1000 375 q 844 472 964 472 l 843 157 q 868 83 843 104 q 950 63 893 63 q 1140 150 1064 63 q 1229 346 1207 226 l 1290 346 l 1275 0 l 513 0 l 514 61 q 584 85 572 72 q 596 158 596 99 l 596 379 l 303 381 q 257 290 297 368 q 207 129 207 193 q 246 71 207 86 q 321 61 271 61 l 321 0 l -8 0 l -8 61 q 69 93 36 65 q 122 164 101 121 q 224 360 172 261 q 361 644 303 515 q 432 849 432 803 q 385 903 432 889 q 306 911 357 911 l 306 972 l 1268 972 l 1275 649 l 1214 649 q 1131 832 1194 761 q 949 911 1058 911 q 869 890 894 911 q 844 815 844 869 l 844 533 q 976 581 943 533 q 1015 721 999 613 l 1076 721 l 1076 283 l 1015 283 z "},"Ç":{"ha":958,"x_min":49,"x_max":900,"o":"m 881 993 l 897 611 l 836 610 q 749 822 807 739 q 560 932 671 932 q 368 767 419 932 q 338 486 338 668 q 367 215 338 306 q 557 61 417 61 q 735 128 658 61 q 839 290 803 188 l 900 290 q 761 65 864 151 q 517 -21 658 -21 q 181 136 318 -21 q 49 488 49 286 q 181 838 49 688 q 517 994 318 994 q 631 971 565 994 q 761 917 696 943 q 801 944 785 917 q 819 993 811 961 l 881 993 m 432 -3 l 489 -3 l 450 -89 l 483 -85 q 575 -106 543 -85 q 607 -185 607 -128 q 546 -274 607 -246 q 431 -294 501 -294 q 311 -274 369 -294 l 335 -224 q 425 -244 381 -244 q 474 -229 453 -244 q 494 -186 494 -214 q 476 -147 494 -160 q 429 -135 457 -135 q 414 -137 421 -135 q 392 -146 407 -139 l 374 -133 l 432 -3 z "},"È":{"ha":1033,"x_min":49,"x_max":958,"o":"m 949 0 l 49 0 l 50 61 q 138 76 115 61 q 167 158 167 96 l 165 815 q 141 895 165 879 q 49 911 117 911 l 49 972 l 936 972 l 947 650 l 886 651 q 786 843 854 781 q 582 911 711 911 q 465 892 488 911 q 442 779 442 872 l 442 536 l 493 533 q 617 590 582 533 q 644 729 644 635 l 706 729 l 706 281 l 644 281 q 617 422 644 378 q 492 478 582 478 l 442 475 l 442 163 q 478 72 442 90 q 582 63 497 63 q 793 142 719 63 q 897 347 847 200 l 958 347 l 949 0 m 569 1065 q 399 1181 461 1135 q 338 1249 338 1226 q 355 1291 338 1274 q 397 1308 372 1308 q 528 1207 440 1308 q 642 1065 585 1136 l 569 1065 z "},"É":{"ha":1033,"x_min":49,"x_max":958,"o":"m 949 0 l 49 0 l 50 61 q 138 76 115 61 q 167 158 167 96 l 165 815 q 141 895 165 879 q 49 911 117 911 l 49 972 l 936 972 l 947 650 l 886 651 q 786 843 854 781 q 582 911 711 911 q 465 892 488 911 q 442 779 442 872 l 442 536 l 493 533 q 617 590 582 533 q 644 729 644 635 l 706 729 l 706 281 l 644 281 q 617 422 644 378 q 492 478 582 478 l 442 475 l 442 163 q 478 72 442 90 q 582 63 497 63 q 793 142 719 63 q 897 347 847 200 l 958 347 l 949 0 m 425 1065 q 539 1206 493 1151 q 668 1308 628 1308 q 710 1290 692 1308 q 728 1249 728 1272 q 628 1153 728 1221 q 497 1065 563 1108 l 425 1065 z "},"Ê":{"ha":1033,"x_min":49,"x_max":958,"o":"m 949 0 l 49 0 l 50 61 q 138 76 115 61 q 167 158 167 96 l 165 815 q 141 895 165 879 q 49 911 117 911 l 49 972 l 936 972 l 947 650 l 886 651 q 786 843 854 781 q 582 911 711 911 q 465 892 488 911 q 442 779 442 872 l 442 536 l 493 533 q 617 590 582 533 q 644 729 644 635 l 706 729 l 706 281 l 644 281 q 617 422 644 378 q 492 478 582 478 l 442 475 l 442 163 q 478 72 442 90 q 582 63 497 63 q 793 142 719 63 q 897 347 847 200 l 958 347 l 949 0 m 571 1304 l 721 1075 l 717 1071 l 518 1206 l 318 1071 l 314 1075 l 464 1304 l 571 1304 z "},"Ë":{"ha":1033,"x_min":49,"x_max":958,"o":"m 949 0 l 49 0 l 50 61 q 138 76 115 61 q 167 158 167 96 l 165 815 q 141 895 165 879 q 49 911 117 911 l 49 972 l 936 972 l 947 650 l 886 651 q 786 843 854 781 q 582 911 711 911 q 465 892 488 911 q 442 779 442 872 l 442 536 l 493 533 q 617 590 582 533 q 644 729 644 635 l 706 729 l 706 281 l 644 281 q 617 422 644 378 q 492 478 582 478 l 442 475 l 442 163 q 478 72 442 90 q 582 63 497 63 q 793 142 719 63 q 897 347 847 200 l 958 347 l 949 0 m 563 1161 q 586 1217 563 1193 q 643 1240 610 1240 q 698 1217 675 1240 q 721 1161 721 1194 q 698 1105 721 1129 q 642 1081 675 1081 q 586 1104 610 1081 q 563 1161 563 1128 m 313 1161 q 336 1217 313 1193 q 393 1240 360 1240 q 449 1217 425 1240 q 472 1161 472 1193 q 449 1104 472 1128 q 392 1081 425 1081 q 336 1104 360 1081 q 313 1161 313 1128 z "},"Ì":{"ha":663,"x_min":78,"x_max":588,"o":"m 588 911 q 499 897 519 911 q 469 815 469 878 l 469 154 q 500 76 469 93 q 588 61 515 68 l 588 0 l 78 0 l 78 61 q 165 76 143 61 q 194 158 194 96 l 194 819 q 164 899 194 881 q 78 911 143 911 l 78 972 l 588 972 l 588 911 m 383 1065 q 215 1179 274 1135 q 151 1249 151 1228 q 169 1290 151 1272 q 211 1308 188 1308 q 342 1207 254 1308 q 456 1065 399 1136 l 383 1065 z "},"Í":{"ha":663,"x_min":78,"x_max":588,"o":"m 588 911 q 499 897 519 911 q 469 815 469 878 l 469 154 q 500 76 469 93 q 588 61 515 68 l 588 0 l 78 0 l 78 61 q 165 76 143 61 q 194 158 194 96 l 194 819 q 164 899 194 881 q 78 911 143 911 l 78 972 l 588 972 l 588 911 m 238 1065 q 351 1206 306 1151 q 482 1308 439 1308 q 525 1290 507 1308 q 543 1247 543 1272 q 442 1153 543 1224 q 311 1065 376 1108 l 238 1065 z "},"Î":{"ha":663,"x_min":78,"x_max":588,"o":"m 588 911 q 499 897 519 911 q 469 815 469 878 l 469 154 q 500 76 469 93 q 588 61 515 68 l 588 0 l 78 0 l 78 61 q 165 76 143 61 q 194 158 194 96 l 194 819 q 164 899 194 881 q 78 911 143 911 l 78 972 l 588 972 l 588 911 m 385 1304 l 535 1075 l 531 1071 l 332 1206 l 132 1071 l 128 1075 l 278 1304 l 385 1304 z "},"Ï":{"ha":663,"x_min":78,"x_max":588,"o":"m 588 911 q 499 897 519 911 q 469 815 469 878 l 469 154 q 500 76 469 93 q 588 61 515 68 l 588 0 l 78 0 l 78 61 q 165 76 143 61 q 194 158 194 96 l 194 819 q 164 899 194 881 q 78 911 143 911 l 78 972 l 588 972 l 588 911 m 375 1161 q 399 1219 375 1197 q 458 1242 422 1242 q 512 1217 489 1242 q 535 1160 535 1193 q 512 1103 535 1126 q 454 1081 489 1081 q 399 1104 422 1081 q 375 1161 375 1128 m 126 1161 q 150 1219 126 1197 q 210 1242 174 1242 q 263 1217 240 1242 q 286 1160 286 1193 q 263 1103 286 1126 q 206 1081 240 1081 q 150 1104 174 1081 q 126 1161 126 1128 z "},"Ð":{"ha":1107,"x_min":61,"x_max":1043,"o":"m 456 558 l 572 558 l 572 497 l 456 497 l 454 132 q 476 78 454 94 q 539 63 499 63 q 722 193 674 63 q 753 439 753 275 l 751 550 q 721 788 751 710 q 538 911 672 911 q 477 894 499 911 q 456 840 456 878 l 456 558 m 179 497 l 63 497 l 63 558 l 179 558 l 179 815 q 153 894 179 876 q 63 911 128 911 l 63 972 l 539 974 q 900 839 757 974 q 1043 486 1043 704 q 872 111 1043 236 q 461 0 721 0 l 63 0 l 61 61 q 149 78 125 61 q 179 158 179 99 l 179 497 z "},"Ñ":{"ha":1107,"x_min":43,"x_max":1065,"o":"m 247 733 l 244 190 q 278 100 244 139 q 363 61 311 61 l 363 0 l 51 0 l 51 63 q 135 102 101 63 q 169 192 169 142 l 169 739 q 147 857 169 824 q 43 911 124 890 l 43 972 l 390 972 l 869 354 l 872 782 q 841 874 872 838 q 756 911 810 911 l 756 972 l 1065 972 l 1065 911 q 982 872 1015 911 q 949 782 949 833 l 949 0 l 819 0 l 247 733 m 772 1253 q 731 1144 763 1188 q 631 1093 692 1093 q 531 1126 590 1093 q 450 1160 471 1160 q 406 1141 424 1160 q 382 1094 389 1122 l 336 1094 q 379 1200 349 1160 q 476 1251 418 1251 q 551 1232 511 1251 q 658 1186 647 1186 q 704 1207 686 1186 q 728 1253 715 1221 l 772 1253 z "},"Ò":{"ha":1033,"x_min":49,"x_max":983,"o":"m 49 486 q 181 838 49 688 q 517 994 318 994 q 851 838 714 994 q 983 488 983 688 q 851 136 983 288 q 517 -21 714 -21 q 181 135 318 -21 q 49 486 49 285 m 694 406 l 694 569 q 672 797 694 722 q 518 933 632 933 q 363 799 404 933 q 339 571 339 721 l 339 406 q 361 178 339 253 q 517 42 401 42 q 651 123 607 42 q 694 406 694 204 m 538 1067 q 367 1182 429 1136 q 306 1250 306 1228 q 323 1292 306 1275 q 365 1310 340 1310 q 496 1208 410 1310 q 610 1067 553 1138 l 538 1067 z "},"Ó":{"ha":1033,"x_min":49,"x_max":983,"o":"m 49 486 q 181 838 49 688 q 517 994 318 994 q 851 838 714 994 q 983 488 983 688 q 851 136 983 288 q 517 -21 714 -21 q 181 135 318 -21 q 49 486 49 285 m 694 406 l 694 569 q 672 797 694 722 q 518 933 632 933 q 363 799 404 933 q 339 571 339 721 l 339 406 q 361 178 339 253 q 517 42 401 42 q 651 123 607 42 q 694 406 694 204 m 425 1067 q 539 1207 493 1153 q 668 1310 628 1310 q 710 1292 692 1310 q 728 1250 728 1274 q 628 1154 728 1222 q 497 1067 563 1110 l 425 1067 z "},"Ô":{"ha":1033,"x_min":49,"x_max":983,"o":"m 49 486 q 181 838 49 688 q 517 994 318 994 q 851 838 714 994 q 983 488 983 688 q 851 136 983 288 q 517 -21 714 -21 q 181 135 318 -21 q 49 486 49 285 m 694 406 l 694 569 q 672 797 694 722 q 518 933 632 933 q 363 799 404 933 q 339 571 339 721 l 339 406 q 361 178 339 253 q 517 42 401 42 q 651 123 607 42 q 694 406 694 204 m 571 1306 l 721 1076 l 717 1072 l 518 1207 l 318 1072 l 314 1076 l 464 1306 l 571 1306 z "},"Õ":{"ha":1033,"x_min":49,"x_max":983,"o":"m 49 486 q 181 838 49 688 q 517 994 318 994 q 851 838 714 994 q 983 488 983 688 q 851 136 983 288 q 517 -21 714 -21 q 181 135 318 -21 q 49 486 49 285 m 694 406 l 694 569 q 672 797 694 722 q 518 933 632 933 q 363 799 404 933 q 339 571 339 721 l 339 406 q 361 178 339 253 q 517 42 401 42 q 651 123 607 42 q 694 406 694 204 m 736 1254 q 694 1147 728 1190 q 594 1094 654 1094 q 494 1128 554 1094 q 415 1161 435 1161 q 372 1142 390 1161 q 346 1096 354 1122 l 299 1096 q 345 1206 306 1158 q 444 1253 385 1253 q 515 1233 478 1253 q 622 1188 604 1188 q 665 1207 649 1188 q 692 1254 682 1226 l 736 1254 z "},"Ö":{"ha":1033,"x_min":49,"x_max":983,"o":"m 49 486 q 181 838 49 688 q 517 994 318 994 q 851 838 714 994 q 983 488 983 688 q 851 136 983 288 q 517 -21 714 -21 q 181 135 318 -21 q 49 486 49 285 m 694 406 l 694 569 q 672 797 694 722 q 518 933 632 933 q 363 799 404 933 q 339 571 339 721 l 339 406 q 361 178 339 253 q 517 42 401 42 q 651 123 607 42 q 694 406 694 204 m 563 1163 q 586 1218 563 1194 q 643 1242 610 1242 q 698 1219 675 1242 q 721 1163 721 1196 q 698 1106 721 1131 q 642 1082 675 1082 q 586 1106 610 1082 q 563 1163 563 1129 m 313 1163 q 336 1218 313 1194 q 393 1242 360 1242 q 449 1218 425 1242 q 472 1163 472 1194 q 449 1106 472 1129 q 392 1082 425 1082 q 336 1106 360 1082 q 313 1163 313 1129 z "},"×":{"ha":804,"x_min":63,"x_max":740,"o":"m 63 565 l 175 676 l 403 450 l 629 676 l 740 565 l 513 338 l 740 111 l 629 0 l 403 226 l 175 0 l 63 111 l 292 338 l 63 565 z "},"Ø":{"ha":1033,"x_min":49,"x_max":983,"o":"m 121 -118 l 235 82 q 97 262 146 156 q 49 488 49 368 q 181 838 49 688 q 517 994 318 994 q 729 939 629 994 l 790 1044 l 874 1044 l 788 897 q 931 715 878 826 q 983 488 983 603 q 851 136 983 288 q 518 -22 714 -22 q 293 42 397 -22 l 200 -118 l 121 -118 m 367 168 q 420 74 383 108 q 517 40 457 40 q 672 176 631 40 q 697 407 697 257 q 697 478 697 442 q 699 551 697 514 l 699 572 q 698 633 699 600 q 688 721 697 667 l 367 168 m 661 821 q 606 902 643 872 q 517 932 569 932 q 360 789 403 932 q 335 551 335 704 l 335 482 q 335 378 335 429 q 344 271 336 328 l 661 821 z "},"Ù":{"ha":1107,"x_min":39,"x_max":1069,"o":"m 560 -21 q 222 129 317 -21 q 154 460 154 238 q 160 613 154 514 q 165 749 165 711 q 144 878 165 836 q 108 904 133 897 q 53 911 83 911 l 39 911 l 39 972 l 535 972 l 536 911 q 454 892 476 911 q 432 815 432 874 l 429 319 q 471 139 429 201 q 635 63 521 63 q 818 150 754 63 q 876 353 876 229 l 876 782 q 845 874 876 838 q 758 911 814 911 l 758 972 l 1069 972 l 1068 911 q 968 832 997 911 q 944 657 944 768 q 947 558 944 607 q 951 467 949 508 q 878 118 951 229 q 560 -21 786 -21 m 606 1065 q 438 1179 496 1135 q 374 1249 374 1228 q 392 1290 374 1272 q 433 1308 410 1308 q 564 1207 476 1308 q 678 1065 621 1136 l 606 1065 z "},"Ú":{"ha":1107,"x_min":39,"x_max":1069,"o":"m 560 -21 q 222 129 317 -21 q 154 460 154 238 q 160 613 154 514 q 165 749 165 711 q 144 878 165 836 q 108 904 133 897 q 53 911 83 911 l 39 911 l 39 972 l 535 972 l 536 911 q 454 892 476 911 q 432 815 432 874 l 429 319 q 471 139 429 201 q 635 63 521 63 q 818 150 754 63 q 876 353 876 229 l 876 782 q 845 874 876 838 q 758 911 814 911 l 758 972 l 1069 972 l 1068 911 q 968 832 997 911 q 944 657 944 768 q 947 558 944 607 q 951 467 949 508 q 878 118 951 229 q 560 -21 786 -21 m 460 1065 q 574 1206 528 1151 q 704 1308 661 1308 q 747 1290 729 1308 q 765 1247 765 1272 q 664 1153 765 1224 q 533 1065 599 1108 l 460 1065 z "},"Û":{"ha":1107,"x_min":39,"x_max":1069,"o":"m 560 -21 q 222 129 317 -21 q 154 460 154 238 q 160 613 154 514 q 165 749 165 711 q 144 878 165 836 q 108 904 133 897 q 53 911 83 911 l 39 911 l 39 972 l 535 972 l 536 911 q 454 892 476 911 q 432 815 432 874 l 429 319 q 471 139 429 201 q 635 63 521 63 q 818 150 754 63 q 876 353 876 229 l 876 782 q 845 874 876 838 q 758 911 814 911 l 758 972 l 1069 972 l 1068 911 q 968 832 997 911 q 944 657 944 768 q 947 558 944 607 q 951 467 949 508 q 878 118 951 229 q 560 -21 786 -21 m 607 1304 l 757 1075 l 753 1071 l 554 1206 l 354 1071 l 350 1075 l 500 1304 l 607 1304 z "},"Ü":{"ha":1107,"x_min":39,"x_max":1069,"o":"m 560 -21 q 222 129 317 -21 q 154 460 154 238 q 160 613 154 514 q 165 749 165 711 q 144 878 165 836 q 108 904 133 897 q 53 911 83 911 l 39 911 l 39 972 l 535 972 l 536 911 q 454 892 476 911 q 432 815 432 874 l 429 319 q 471 139 429 201 q 635 63 521 63 q 818 150 754 63 q 876 353 876 229 l 876 782 q 845 874 876 838 q 758 911 814 911 l 758 972 l 1069 972 l 1068 911 q 968 832 997 911 q 944 657 944 768 q 947 558 944 607 q 951 467 949 508 q 878 118 951 229 q 560 -21 786 -21 m 597 1161 q 622 1217 597 1194 q 679 1240 646 1240 q 734 1217 711 1240 q 757 1161 757 1194 q 733 1104 757 1128 q 676 1081 710 1081 q 621 1104 644 1081 q 597 1161 597 1128 m 350 1161 q 374 1219 350 1197 q 433 1242 397 1242 q 487 1217 464 1242 q 510 1160 510 1193 q 487 1103 510 1126 q 429 1081 464 1081 q 374 1104 397 1081 q 350 1161 350 1128 z "},"Ý":{"ha":1107,"x_min":42,"x_max":1065,"o":"m 42 972 l 593 972 l 593 911 q 517 906 542 911 q 464 861 464 894 q 549 671 464 835 q 658 464 603 567 q 760 642 724 574 q 828 825 828 768 q 792 890 828 869 q 707 911 756 911 l 707 972 l 1065 972 l 1065 911 q 963 867 1006 911 q 899 771 935 838 q 751 489 825 629 q 688 369 729 444 l 688 158 q 728 71 688 89 q 831 61 750 61 l 831 0 l 268 0 l 267 61 l 296 61 q 379 74 358 61 q 411 158 411 93 l 411 375 q 357 481 383 428 q 249 685 303 582 q 185 813 196 788 q 129 885 158 863 q 42 911 94 911 l 42 972 m 460 1065 q 574 1206 528 1151 q 704 1308 661 1308 q 747 1290 729 1308 q 765 1247 765 1272 q 664 1153 765 1224 q 533 1065 599 1108 l 460 1065 z "},"Þ":{"ha":958,"x_min":46,"x_max":940,"o":"m 438 336 q 614 372 571 336 q 665 544 665 415 q 642 683 665 635 q 526 751 608 751 q 453 726 469 751 q 438 639 438 700 l 438 336 m 438 158 q 467 75 438 94 q 556 61 488 61 l 556 0 l 46 0 l 46 63 q 133 78 111 63 q 163 158 163 97 l 161 814 q 133 897 161 878 q 46 911 113 911 l 46 972 l 556 972 l 554 910 q 483 904 501 910 q 438 817 438 890 q 650 803 564 817 q 851 729 782 782 q 940 544 940 663 q 854 356 940 421 q 654 286 786 304 q 438 275 574 275 l 438 158 z "},"ß":{"ha":886,"x_min":31,"x_max":822,"o":"m 468 1025 q 675 975 592 1025 q 778 799 778 914 q 701 663 778 713 q 546 608 644 625 q 747 499 692 553 q 822 288 822 425 q 743 69 822 158 q 536 -21 664 -21 q 480 -16 504 -21 q 418 1 456 -11 l 442 69 q 482 49 467 56 q 499 40 488 46 q 583 144 567 40 q 590 246 590 188 l 590 281 l 590 329 q 568 493 590 444 q 429 571 532 571 l 429 633 q 529 674 504 633 q 549 785 549 706 q 536 906 549 874 q 438 964 513 964 q 354 906 376 964 q 340 793 340 869 l 340 0 l 31 0 l 31 63 q 125 118 99 63 q 147 264 147 164 q 133 488 147 304 q 126 633 126 579 q 189 907 126 815 q 468 1025 269 1025 z "},"à":{"ha":738,"x_min":49,"x_max":722,"o":"m 422 343 q 299 310 344 343 q 244 194 244 271 q 265 127 244 153 q 325 101 285 101 q 407 158 385 101 q 422 268 422 197 l 422 343 m 421 401 l 421 521 q 392 622 421 590 q 294 653 364 653 q 260 648 275 653 q 235 629 244 643 q 256 587 239 615 q 274 542 274 558 q 247 480 274 504 q 179 456 219 456 q 112 480 140 456 q 83 544 83 504 q 176 679 83 633 q 347 715 249 715 q 589 613 522 715 q 639 367 639 535 q 635 239 639 325 q 631 110 631 153 l 636 86 l 660 81 l 700 85 l 722 68 q 663 7 722 31 q 569 -11 615 -11 q 436 99 463 -11 q 336 15 379 42 q 213 -22 275 -22 q 95 27 142 -22 q 49 147 49 76 q 178 339 49 275 q 421 401 260 379 m 389 786 q 222 899 281 854 q 158 968 158 947 q 175 1011 158 994 q 217 1028 192 1028 q 346 926 258 1028 q 461 786 403 856 l 389 786 z "},"á":{"ha":738,"x_min":49,"x_max":722,"o":"m 422 343 q 299 310 344 343 q 244 194 244 271 q 265 127 244 153 q 325 101 285 101 q 407 158 385 101 q 422 268 422 197 l 422 343 m 421 401 l 421 521 q 392 622 421 590 q 294 653 364 653 q 260 648 275 653 q 235 629 244 643 q 256 587 239 615 q 274 542 274 558 q 247 480 274 504 q 179 456 219 456 q 112 480 140 456 q 83 544 83 504 q 176 679 83 633 q 347 715 249 715 q 589 613 522 715 q 639 367 639 535 q 635 239 639 325 q 631 110 631 153 l 636 86 l 660 81 l 700 85 l 722 68 q 663 7 722 31 q 569 -11 615 -11 q 436 99 463 -11 q 336 15 379 42 q 213 -22 275 -22 q 95 27 142 -22 q 49 147 49 76 q 178 339 49 275 q 421 401 260 379 m 256 786 q 369 926 324 872 q 500 1029 458 1029 q 542 1011 524 1029 q 560 969 560 993 q 460 874 560 942 q 328 786 393 829 l 256 786 z "},"â":{"ha":738,"x_min":49,"x_max":722,"o":"m 422 343 q 299 310 344 343 q 244 194 244 271 q 265 127 244 153 q 325 101 285 101 q 407 158 385 101 q 422 268 422 197 l 422 343 m 421 401 l 421 521 q 392 622 421 590 q 294 653 364 653 q 260 648 275 653 q 235 629 244 643 q 256 587 239 615 q 274 542 274 558 q 247 480 274 504 q 179 456 219 456 q 112 480 140 456 q 83 544 83 504 q 176 679 83 633 q 347 715 249 715 q 589 613 522 715 q 639 367 639 535 q 635 239 639 325 q 631 110 631 153 l 636 86 l 660 81 l 700 85 l 722 68 q 663 7 722 31 q 569 -11 615 -11 q 436 99 463 -11 q 336 15 379 42 q 213 -22 275 -22 q 95 27 142 -22 q 49 147 49 76 q 178 339 49 275 q 421 401 260 379 m 401 1025 l 551 796 l 547 792 l 349 926 l 149 792 l 144 796 l 294 1025 l 401 1025 z "},"ã":{"ha":738,"x_min":49,"x_max":722,"o":"m 422 343 q 299 310 344 343 q 244 194 244 271 q 265 127 244 153 q 325 101 285 101 q 407 158 385 101 q 422 268 422 197 l 422 343 m 421 401 l 421 521 q 392 622 421 590 q 294 653 364 653 q 260 648 275 653 q 235 629 244 643 q 256 587 239 615 q 274 542 274 558 q 247 480 274 504 q 179 456 219 456 q 112 480 140 456 q 83 544 83 504 q 176 679 83 633 q 347 715 249 715 q 589 613 522 715 q 639 367 639 535 q 635 239 639 325 q 631 110 631 153 l 636 86 l 660 81 l 700 85 l 722 68 q 663 7 722 31 q 569 -11 615 -11 q 436 99 463 -11 q 336 15 379 42 q 213 -22 275 -22 q 95 27 142 -22 q 49 147 49 76 q 178 339 49 275 q 421 401 260 379 m 588 974 q 546 867 578 910 q 446 814 506 814 q 368 835 410 814 q 267 881 276 881 q 222 861 242 881 q 197 815 203 842 l 151 815 q 196 922 165 882 q 296 972 235 972 q 392 940 332 972 q 472 907 451 907 q 517 924 501 907 q 542 974 532 942 l 588 974 z "},"ä":{"ha":738,"x_min":49,"x_max":722,"o":"m 422 343 q 299 310 344 343 q 244 194 244 271 q 265 127 244 153 q 325 101 285 101 q 407 158 385 101 q 422 268 422 197 l 422 343 m 421 401 l 421 521 q 392 622 421 590 q 294 653 364 653 q 260 648 275 653 q 235 629 244 643 q 256 587 239 615 q 274 542 274 558 q 247 480 274 504 q 179 456 219 456 q 112 480 140 456 q 83 544 83 504 q 176 679 83 633 q 347 715 249 715 q 589 613 522 715 q 639 367 639 535 q 635 239 639 325 q 631 110 631 153 l 636 86 l 660 81 l 700 85 l 722 68 q 663 7 722 31 q 569 -11 615 -11 q 436 99 463 -11 q 336 15 379 42 q 213 -22 275 -22 q 95 27 142 -22 q 49 147 49 76 q 178 339 49 275 q 421 401 260 379 m 393 882 q 417 938 393 914 q 474 961 440 961 q 528 938 506 961 q 551 882 551 915 q 528 826 551 850 q 472 801 506 801 q 417 825 440 801 q 393 882 393 849 m 143 882 q 167 938 143 914 q 225 961 190 961 q 280 938 257 961 q 303 882 303 915 q 279 825 303 849 q 222 801 256 801 q 167 825 190 801 q 143 882 143 849 z "},"å":{"ha":738,"x_min":49,"x_max":722,"o":"m 422 343 q 299 310 344 343 q 244 194 244 271 q 265 127 244 153 q 325 101 285 101 q 407 158 385 101 q 422 268 422 197 l 422 343 m 421 401 l 421 521 q 392 622 421 590 q 294 653 364 653 q 260 648 275 653 q 235 629 244 643 q 256 587 239 615 q 274 542 274 558 q 247 480 274 504 q 179 456 219 456 q 112 480 140 456 q 83 544 83 504 q 176 679 83 633 q 347 715 249 715 q 589 613 522 715 q 639 367 639 535 q 635 239 639 325 q 631 110 631 153 l 636 86 l 660 81 l 700 85 l 722 68 q 663 7 722 31 q 569 -11 615 -11 q 436 99 463 -11 q 336 15 379 42 q 213 -22 275 -22 q 95 27 142 -22 q 49 147 49 76 q 178 339 49 275 q 421 401 260 379 m 231 924 q 271 1021 231 979 q 368 1063 311 1063 q 465 1021 424 1063 q 507 924 507 979 q 467 826 507 868 q 369 785 426 785 q 272 826 314 785 q 231 924 231 868 m 296 919 q 318 871 296 890 q 369 851 340 851 q 418 875 397 851 q 439 926 439 899 q 417 974 439 953 q 368 994 394 994 q 317 972 338 994 q 296 919 296 950 z "},"æ":{"ha":1107,"x_min":49,"x_max":1046,"o":"m 829 413 l 829 469 q 815 585 829 543 q 733 653 792 653 q 653 586 675 653 q 638 469 638 542 l 638 413 l 829 413 m 638 351 l 636 272 q 665 131 636 183 q 786 63 703 63 q 904 104 853 63 q 981 207 949 140 l 1038 181 q 926 32 1000 86 q 751 -22 851 -22 q 613 18 683 -22 q 497 111 553 53 q 221 -21 388 -21 q 99 26 149 -21 q 49 147 49 74 q 178 340 49 275 q 422 404 264 383 l 422 521 q 394 622 422 590 q 294 653 365 653 q 263 649 278 653 q 236 628 247 646 q 258 588 240 617 q 275 540 275 558 q 247 479 275 503 q 181 456 219 456 q 113 481 142 456 q 83 544 83 506 q 174 678 83 631 q 342 715 246 715 q 452 690 393 715 q 550 628 511 665 q 639 688 597 667 q 740 715 692 715 q 968 601 882 715 q 1046 351 1046 499 l 638 351 m 243 175 q 267 101 243 129 q 335 74 290 74 q 419 131 393 74 q 439 239 439 172 l 439 343 q 300 306 349 343 q 243 175 243 263 z "},"ç":{"ha":738,"x_min":46,"x_max":675,"o":"m 675 140 q 553 24 618 63 q 390 -21 479 -21 q 142 82 239 -21 q 46 338 46 185 q 132 600 46 493 q 378 715 225 715 q 571 667 488 715 q 671 506 671 608 q 642 425 671 457 q 565 393 613 393 q 496 421 522 393 q 469 493 469 449 q 497 562 469 529 q 524 603 524 594 q 494 635 524 624 q 438 646 464 646 q 294 528 331 646 q 274 321 274 460 q 306 151 274 218 q 440 61 349 61 q 550 99 500 61 q 631 186 583 124 l 675 140 m 321 -3 l 379 -3 l 339 -89 l 374 -85 q 464 -106 432 -85 q 496 -185 496 -128 q 435 -274 496 -246 q 319 -294 390 -294 q 200 -274 258 -294 l 224 -224 q 314 -244 269 -244 q 364 -229 343 -244 q 385 -186 385 -214 q 366 -147 385 -160 q 319 -135 347 -135 q 281 -146 306 -135 l 264 -133 l 321 -3 z "},"è":{"ha":738,"x_min":46,"x_max":682,"o":"m 274 351 l 272 271 q 301 129 272 181 q 422 63 339 63 q 540 104 489 63 q 617 207 585 140 l 675 181 q 563 33 638 88 q 389 -21 489 -21 q 144 80 242 -21 q 46 329 46 181 q 131 597 46 489 q 379 715 224 715 q 606 601 521 715 q 682 351 682 499 l 274 351 m 467 413 l 465 469 q 451 585 465 543 q 369 653 428 653 q 289 586 311 653 q 274 469 274 542 l 274 413 l 467 413 m 390 786 q 224 899 282 854 q 160 968 160 947 q 176 1011 160 994 q 218 1028 193 1028 q 347 926 260 1028 q 463 786 404 856 l 390 786 z "},"é":{"ha":738,"x_min":46,"x_max":682,"o":"m 274 351 l 272 271 q 301 129 272 181 q 422 63 339 63 q 540 104 489 63 q 617 207 585 140 l 675 181 q 563 33 638 88 q 389 -21 489 -21 q 144 80 242 -21 q 46 329 46 181 q 131 597 46 489 q 379 715 224 715 q 606 601 521 715 q 682 351 682 499 l 274 351 m 467 413 l 465 469 q 451 585 465 543 q 369 653 428 653 q 289 586 311 653 q 274 469 274 542 l 274 413 l 467 413 m 276 786 q 389 928 343 875 q 521 1029 475 1029 q 563 1011 544 1029 q 581 969 581 993 q 481 874 581 943 q 350 786 415 829 l 276 786 z "},"ê":{"ha":738,"x_min":46,"x_max":682,"o":"m 274 351 l 272 271 q 301 129 272 181 q 422 63 339 63 q 540 104 489 63 q 617 207 585 140 l 675 181 q 563 33 638 88 q 389 -21 489 -21 q 144 80 242 -21 q 46 329 46 181 q 131 597 46 489 q 379 715 224 715 q 606 601 521 715 q 682 351 682 499 l 274 351 m 467 413 l 465 469 q 451 585 465 543 q 369 653 428 653 q 289 586 311 653 q 274 469 274 542 l 274 413 l 467 413 m 422 1025 l 574 796 l 568 792 l 371 926 l 171 792 l 167 796 l 317 1025 l 422 1025 z "},"ë":{"ha":738,"x_min":46,"x_max":682,"o":"m 274 351 l 272 271 q 301 129 272 181 q 422 63 339 63 q 540 104 489 63 q 617 207 585 140 l 675 181 q 563 33 638 88 q 389 -21 489 -21 q 144 80 242 -21 q 46 329 46 181 q 131 597 46 489 q 379 715 224 715 q 606 601 521 715 q 682 351 682 499 l 274 351 m 467 413 l 465 469 q 451 585 465 543 q 369 653 428 653 q 289 586 311 653 q 274 469 274 542 l 274 413 l 467 413 m 414 882 q 437 940 414 917 q 494 963 460 963 q 550 939 526 963 q 574 882 574 915 q 550 825 574 849 q 493 801 526 801 q 438 825 461 801 q 414 882 414 849 m 165 882 q 188 940 165 917 q 246 963 211 963 q 301 939 279 963 q 324 882 324 915 q 301 826 324 850 q 244 801 278 801 q 189 825 213 801 q 165 882 165 849 z "},"ì":{"ha":515,"x_min":64,"x_max":451,"o":"m 451 61 l 451 0 l 64 0 l 64 61 q 133 84 113 61 q 153 158 153 107 l 153 551 q 133 615 153 599 q 67 632 114 632 l 68 693 q 222 698 151 693 q 363 715 293 703 l 363 157 q 381 83 363 104 q 451 61 400 61 m 297 786 q 131 900 189 856 q 67 969 67 949 q 84 1012 67 994 q 126 1029 101 1029 q 257 928 169 1029 q 371 786 314 857 l 297 786 z "},"í":{"ha":515,"x_min":64,"x_max":468,"o":"m 451 61 l 451 0 l 64 0 l 64 61 q 133 84 113 61 q 153 158 153 107 l 153 551 q 133 615 153 599 q 67 632 114 632 l 68 693 q 222 698 151 693 q 363 715 293 703 l 363 157 q 381 83 363 104 q 451 61 400 61 m 165 786 q 278 928 233 875 q 408 1029 364 1029 q 450 1011 432 1029 q 468 969 468 993 q 368 874 468 943 q 238 786 303 829 l 165 786 z "},"î":{"ha":515,"x_min":54,"x_max":461,"o":"m 451 61 l 451 0 l 64 0 l 64 61 q 133 84 113 61 q 153 158 153 107 l 153 551 q 133 615 153 599 q 67 632 114 632 l 68 693 q 222 698 151 693 q 363 715 293 703 l 363 157 q 381 83 363 104 q 451 61 400 61 m 311 1025 l 461 796 l 457 792 l 258 926 l 58 792 l 54 796 l 204 1025 l 311 1025 z "},"ï":{"ha":515,"x_min":53,"x_max":461,"o":"m 451 61 l 451 0 l 64 0 l 64 61 q 133 84 113 61 q 153 158 153 107 l 153 551 q 133 615 153 599 q 67 632 114 632 l 68 693 q 222 698 151 693 q 363 715 293 703 l 363 157 q 381 83 363 104 q 451 61 400 61 m 303 882 q 326 940 303 917 q 383 963 349 963 q 439 939 417 963 q 461 882 461 915 q 439 825 461 849 q 382 801 417 801 q 326 825 350 801 q 303 882 303 849 m 53 882 q 76 939 53 915 q 133 963 100 963 q 189 939 165 963 q 213 882 213 915 q 189 825 213 849 q 132 801 165 801 q 76 825 100 801 q 53 882 53 849 z "},"ð":{"ha":738,"x_min":42,"x_max":685,"o":"m 456 394 q 444 528 456 482 q 365 614 424 614 q 285 531 307 614 q 272 399 272 483 l 272 249 q 285 122 272 169 q 363 40 307 40 q 443 126 421 40 q 456 261 456 175 l 456 394 m 364 -21 q 126 92 217 -21 q 42 347 42 197 q 161 588 42 496 q 422 686 264 667 l 411 782 l 338 713 l 294 754 l 393 847 q 347 924 376 893 q 268 963 310 963 q 192 949 228 963 q 151 903 156 936 l 160 896 q 238 878 207 896 q 268 817 268 861 q 249 751 268 781 q 194 722 231 722 q 107 758 136 722 q 78 854 78 794 q 149 981 78 931 q 293 1025 211 1025 q 493 939 411 1025 l 588 1025 l 629 983 l 529 892 q 638 662 590 808 q 685 411 685 515 q 619 115 685 225 q 364 -21 538 -21 z "},"ñ":{"ha":886,"x_min":54,"x_max":831,"o":"m 333 581 q 433 672 410 656 q 561 715 493 715 q 726 631 678 715 q 764 439 764 565 q 761 347 764 392 q 753 208 753 214 q 763 114 753 143 q 831 61 781 61 l 831 0 l 475 0 l 475 61 q 533 92 514 61 q 549 158 549 117 l 549 468 q 539 560 549 531 q 474 613 522 613 q 378 532 411 613 q 353 397 353 472 l 353 158 q 368 87 353 113 q 426 61 383 61 l 426 0 l 54 0 l 56 60 q 124 84 104 60 q 144 158 144 108 l 143 551 q 124 615 143 599 q 57 632 104 632 l 58 694 q 333 715 196 694 l 333 581 m 663 974 q 619 865 651 907 q 519 814 581 814 q 443 835 485 814 q 340 881 350 881 q 297 862 314 881 q 271 815 279 843 l 225 815 q 268 921 238 881 q 367 972 307 972 q 438 953 399 972 q 549 907 529 907 q 592 926 575 907 q 617 974 608 946 l 663 974 z "},"ò":{"ha":738,"x_min":49,"x_max":690,"o":"m 690 339 q 604 89 690 192 q 368 -21 513 -21 q 129 94 218 -21 q 49 356 49 200 q 135 603 49 500 q 369 714 228 714 q 610 600 522 714 q 690 339 690 496 m 460 442 q 447 571 460 524 q 367 654 425 654 q 288 572 308 654 q 275 442 275 524 l 275 257 q 288 125 275 174 q 368 40 310 40 q 447 124 426 40 q 460 256 460 172 l 460 442 m 389 788 q 222 900 281 856 q 158 969 158 949 q 175 1013 158 996 q 217 1029 192 1029 q 346 928 258 1029 q 461 788 403 857 l 389 788 z "},"ó":{"ha":738,"x_min":49,"x_max":690,"o":"m 690 339 q 604 89 690 192 q 368 -21 513 -21 q 129 94 218 -21 q 49 356 49 200 q 135 603 49 500 q 369 714 228 714 q 610 600 522 714 q 690 339 690 496 m 460 442 q 447 571 460 524 q 367 654 425 654 q 288 572 308 654 q 275 442 275 524 l 275 257 q 288 125 275 174 q 368 40 310 40 q 447 124 426 40 q 460 256 460 172 l 460 442 m 275 788 q 388 929 342 876 q 519 1031 474 1031 q 561 1013 543 1031 q 579 971 579 994 q 479 875 579 944 q 349 788 414 831 l 275 788 z "},"ô":{"ha":738,"x_min":49,"x_max":690,"o":"m 690 339 q 604 89 690 192 q 368 -21 513 -21 q 129 94 218 -21 q 49 356 49 200 q 135 603 49 500 q 369 714 228 714 q 610 600 522 714 q 690 339 690 496 m 460 442 q 447 571 460 524 q 367 654 425 654 q 288 572 308 654 q 275 442 275 524 l 275 257 q 288 125 275 174 q 368 40 310 40 q 447 124 426 40 q 460 256 460 172 l 460 442 m 421 1026 l 572 797 l 567 793 l 369 928 l 169 793 l 165 797 l 315 1026 l 421 1026 z "},"õ":{"ha":738,"x_min":49,"x_max":690,"o":"m 690 339 q 604 89 690 192 q 368 -21 513 -21 q 129 94 218 -21 q 49 356 49 200 q 135 603 49 500 q 369 714 228 714 q 610 600 522 714 q 690 339 690 496 m 460 442 q 447 571 460 524 q 367 654 425 654 q 288 572 308 654 q 275 442 275 524 l 275 257 q 288 125 275 174 q 368 40 310 40 q 447 124 426 40 q 460 256 460 172 l 460 442 m 588 975 q 546 868 578 911 q 446 815 506 815 q 368 836 410 815 q 267 882 276 882 q 222 863 242 882 q 197 817 203 843 l 151 817 q 196 924 165 883 q 296 974 235 974 q 392 941 332 974 q 472 908 451 908 q 517 926 501 908 q 542 975 532 943 l 588 975 z "},"ö":{"ha":738,"x_min":49,"x_max":690,"o":"m 690 339 q 604 89 690 192 q 368 -21 513 -21 q 129 94 218 -21 q 49 356 49 200 q 135 603 49 500 q 369 714 228 714 q 610 600 522 714 q 690 339 690 496 m 460 442 q 447 571 460 524 q 367 654 425 654 q 288 572 308 654 q 275 442 275 524 l 275 257 q 288 125 275 174 q 368 40 310 40 q 447 124 426 40 q 460 256 460 172 l 460 442 m 413 883 q 435 941 413 918 q 493 964 458 964 q 549 940 525 964 q 572 883 572 917 q 549 826 572 850 q 492 803 525 803 q 436 826 460 803 q 413 883 413 850 m 164 883 q 187 941 164 918 q 244 964 210 964 q 300 940 278 964 q 322 883 322 917 q 299 827 322 851 q 243 803 276 803 q 188 826 211 803 q 164 883 164 850 z "},"÷":{"ha":804,"x_min":63,"x_max":740,"o":"m 63 418 l 740 418 l 740 261 l 63 261 l 63 418 m 497 94 q 469 28 497 56 q 403 0 442 0 q 335 28 365 0 q 306 96 306 57 q 333 163 306 136 q 403 189 361 189 q 470 162 443 189 q 497 94 497 135 m 496 585 q 468 518 496 546 q 401 490 440 490 q 333 519 363 490 q 303 586 303 547 q 332 653 303 626 q 401 679 361 679 q 469 652 442 679 q 496 585 496 625 z "},"ø":{"ha":738,"x_min":49,"x_max":690,"o":"m 290 129 q 314 69 299 92 q 369 40 335 40 q 449 124 426 40 q 461 254 461 172 l 461 453 l 290 129 m 174 49 q 81 181 113 99 q 49 350 49 264 q 133 603 49 497 q 369 717 225 717 q 443 710 411 717 q 510 683 475 703 l 590 839 l 661 839 l 564 650 q 658 517 626 596 q 690 349 690 438 q 607 93 690 199 q 369 -21 517 -21 q 229 13 294 -21 l 132 -171 l 60 -171 l 174 49 m 449 569 q 424 628 439 607 q 368 656 403 656 q 290 575 313 656 q 276 447 276 524 l 276 247 l 449 569 z "},"ù":{"ha":886,"x_min":40,"x_max":824,"o":"m 403 82 q 496 138 458 82 q 529 244 529 186 l 528 551 q 508 615 528 599 q 442 632 489 632 l 443 693 q 597 698 526 693 q 738 715 668 703 l 739 142 q 824 61 739 61 l 824 0 q 660 -5 711 0 q 549 -22 608 -10 l 549 132 q 456 19 493 49 q 317 -22 401 -22 q 151 74 200 -22 q 114 290 114 149 q 117 412 114 350 q 126 551 121 474 q 107 615 126 599 q 40 632 88 632 l 40 693 q 194 698 124 693 q 336 715 265 703 l 335 201 q 344 125 335 151 q 403 82 361 82 m 464 786 q 297 900 356 856 q 233 969 233 949 q 251 1012 233 994 q 293 1029 268 1029 q 424 928 336 1029 q 538 786 481 857 l 464 786 z "},"ú":{"ha":886,"x_min":40,"x_max":824,"o":"m 403 82 q 496 138 458 82 q 529 244 529 186 l 528 551 q 508 615 528 599 q 442 632 489 632 l 443 693 q 597 698 526 693 q 738 715 668 703 l 739 142 q 824 61 739 61 l 824 0 q 660 -5 711 0 q 549 -22 608 -10 l 549 132 q 456 19 493 49 q 317 -22 401 -22 q 151 74 200 -22 q 114 290 114 149 q 117 412 114 350 q 126 551 121 474 q 107 615 126 599 q 40 632 88 632 l 40 693 q 194 698 124 693 q 336 715 265 703 l 335 201 q 344 125 335 151 q 403 82 361 82 m 351 786 q 464 926 418 872 q 596 1029 551 1029 q 638 1011 619 1029 q 656 968 656 993 q 554 874 656 944 q 424 786 489 829 l 351 786 z "},"û":{"ha":886,"x_min":40,"x_max":824,"o":"m 403 82 q 496 138 458 82 q 529 244 529 186 l 528 551 q 508 615 528 599 q 442 632 489 632 l 443 693 q 597 698 526 693 q 738 715 668 703 l 739 142 q 824 61 739 61 l 824 0 q 660 -5 711 0 q 549 -22 608 -10 l 549 132 q 456 19 493 49 q 317 -22 401 -22 q 151 74 200 -22 q 114 290 114 149 q 117 412 114 350 q 126 551 121 474 q 107 615 126 599 q 40 632 88 632 l 40 693 q 194 698 124 693 q 336 715 265 703 l 335 201 q 344 125 335 151 q 403 82 361 82 m 497 1025 l 647 796 l 643 792 l 444 926 l 244 792 l 240 796 l 390 1025 l 497 1025 z "},"ü":{"ha":886,"x_min":40,"x_max":824,"o":"m 403 82 q 496 138 458 82 q 529 244 529 186 l 528 551 q 508 615 528 599 q 442 632 489 632 l 443 693 q 597 698 526 693 q 738 715 668 703 l 739 142 q 824 61 739 61 l 824 0 q 660 -5 711 0 q 549 -22 608 -10 l 549 132 q 456 19 493 49 q 317 -22 401 -22 q 151 74 200 -22 q 114 290 114 149 q 117 412 114 350 q 126 551 121 474 q 107 615 126 599 q 40 632 88 632 l 40 693 q 194 698 124 693 q 336 715 265 703 l 335 201 q 344 125 335 151 q 403 82 361 82 m 489 882 q 512 938 489 915 q 569 961 535 961 q 624 938 601 961 q 647 882 647 915 q 624 826 647 850 q 568 801 601 801 q 513 825 536 801 q 489 882 489 849 m 240 882 q 264 940 240 918 q 324 963 288 963 q 377 938 356 963 q 399 881 399 914 q 376 824 399 847 q 319 801 353 801 q 264 825 288 801 q 240 882 240 849 z "},"ý":{"ha":738,"x_min":10,"x_max":715,"o":"m 10 632 l 10 693 l 364 693 l 364 633 q 321 626 331 629 q 296 594 296 618 q 357 432 296 564 q 439 261 397 346 q 492 375 443 272 q 557 579 557 514 q 531 621 557 610 q 471 632 506 632 l 471 693 l 715 693 l 715 632 q 563 408 646 632 q 401 -8 428 43 q 144 -233 288 -233 q 48 -199 86 -233 q 10 -108 10 -165 q 36 -40 10 -69 q 103 -11 63 -11 q 162 -31 139 -11 q 185 -87 185 -51 q 181 -117 185 -103 q 169 -144 172 -136 l 190 -151 q 276 -87 229 -151 q 335 15 313 -39 l 106 521 q 72 592 78 583 q 10 632 46 632 m 276 786 q 389 928 343 875 q 521 1029 475 1029 q 563 1011 544 1029 q 581 969 581 993 q 481 874 581 943 q 350 786 415 829 l 276 786 z "},"þ":{"ha":811,"x_min":43,"x_max":763,"o":"m 532 425 q 521 546 532 503 q 446 624 500 624 q 354 513 378 624 q 340 346 340 449 q 353 178 340 236 q 446 63 378 63 q 510 113 488 63 q 532 268 532 163 l 532 425 m 314 576 q 390 667 354 638 q 500 706 439 706 q 699 590 625 706 q 763 357 763 489 q 700 117 763 218 q 496 -1 626 -1 q 410 22 449 -1 q 340 81 385 38 l 340 -78 q 363 -153 340 -133 q 443 -174 386 -174 l 443 -235 l 43 -235 l 43 -172 q 132 -78 132 -172 l 132 860 q 113 924 132 907 q 46 940 93 940 l 46 1001 q 158 1013 88 1008 q 314 1024 229 1018 l 314 576 z "},"ÿ":{"ha":738,"x_min":10,"x_max":715,"o":"m 10 632 l 10 693 l 364 693 l 364 633 q 321 626 331 629 q 296 594 296 618 q 357 432 296 564 q 439 261 397 346 q 492 375 443 272 q 557 579 557 514 q 531 621 557 610 q 471 632 506 632 l 471 693 l 715 693 l 715 632 q 563 408 646 632 q 401 -8 428 43 q 144 -233 288 -233 q 48 -199 86 -233 q 10 -108 10 -165 q 36 -40 10 -69 q 103 -11 63 -11 q 162 -31 139 -11 q 185 -87 185 -51 q 181 -117 185 -103 q 169 -144 172 -136 l 190 -151 q 276 -87 229 -151 q 335 15 313 -39 l 106 521 q 72 592 78 583 q 10 632 46 632 m 414 882 q 437 940 414 917 q 494 963 460 963 q 550 939 526 963 q 574 882 574 915 q 550 825 574 849 q 493 801 526 801 q 438 825 461 801 q 414 882 414 849 m 165 882 q 188 940 165 917 q 246 963 211 963 q 301 939 279 963 q 324 882 324 915 q 301 826 324 850 q 244 801 278 801 q 189 825 213 801 q 165 882 165 849 z "},"˘":{"ha":440,"x_min":38,"x_max":406,"o":"m 89 989 q 221 878 118 878 q 353 992 333 878 l 406 990 q 399 942 406 961 q 336 831 389 875 q 215 786 283 786 q 84 844 131 786 q 38 989 38 903 l 89 989 z "},"˙":{"ha":440,"x_min":142,"x_max":300,"o":"m 142 882 q 165 938 142 914 q 222 961 189 961 q 277 938 254 961 q 300 882 300 915 q 277 826 300 850 q 221 801 254 801 q 165 825 189 801 q 142 882 142 849 z "},"ı":{"ha":515,"x_min":64,"x_max":451,"o":"m 451 61 l 451 0 l 64 0 l 64 61 q 133 84 113 61 q 153 158 153 107 l 153 551 q 133 615 153 599 q 67 632 114 632 l 68 693 q 222 698 151 693 q 363 715 293 703 l 363 157 q 381 83 363 104 q 451 61 400 61 z "},"˚":{"ha":440,"x_min":82,"x_max":360,"o":"m 82 924 q 123 1022 82 981 q 221 1063 164 1063 q 318 1021 276 1063 q 360 924 360 979 q 319 826 360 867 q 221 785 278 785 q 124 826 165 785 q 82 924 82 868 m 150 924 q 172 874 150 896 q 224 851 194 851 q 272 874 251 851 q 293 925 293 896 q 272 974 293 953 q 222 994 251 994 q 172 974 194 994 q 150 924 150 953 z "},"˛":{"ha":440,"x_min":28,"x_max":326,"o":"m 326 -225 q 255 -247 290 -239 q 182 -256 219 -256 q 76 -225 119 -256 q 28 -129 28 -190 q 91 -40 28 -83 q 203 3 154 3 l 289 3 q 197 -42 233 -18 q 139 -117 139 -79 q 160 -162 139 -146 q 211 -178 182 -178 q 261 -172 238 -178 q 326 -150 285 -165 l 326 -225 z "},"ˇ":{"ha":440,"x_min":17,"x_max":424,"o":"m 167 792 l 17 1021 l 21 1025 l 219 890 l 419 1025 l 424 1021 l 274 792 l 167 792 z "},"Ł":{"ha":958,"x_min":49,"x_max":926,"o":"m 442 567 l 443 157 q 475 74 443 92 q 568 63 496 63 q 772 160 692 63 q 865 372 838 239 l 926 372 l 910 0 l 49 0 l 50 61 q 138 76 115 61 q 167 158 167 96 l 167 443 l 85 406 l 50 465 l 167 518 l 165 815 q 141 895 165 879 q 49 911 117 911 l 49 972 l 560 972 l 558 911 q 488 906 504 911 q 442 815 442 890 l 442 642 l 557 693 l 592 633 l 442 567 z "},"ł":{"ha":515,"x_min":64,"x_max":451,"o":"m 363 660 l 451 694 l 451 632 l 363 597 l 363 157 q 381 83 363 104 q 451 61 400 61 l 451 0 l 64 0 l 64 61 q 133 84 113 61 q 153 158 153 107 l 153 515 l 64 481 l 64 542 l 153 576 l 153 861 q 133 925 153 908 q 67 942 114 942 l 68 1003 q 222 1008 151 1003 q 363 1025 293 1013 l 363 660 z "},"∕":{"ha":219,"x_min":-225,"x_max":444,"o":"m 363 978 l 444 978 l -142 0 l -225 0 l 363 978 z "},"":{"ha":886,"x_min":28,"x_max":838,"o":"m 838 61 l 838 0 l 467 0 l 465 61 q 524 92 504 61 q 539 158 539 117 l 539 524 l 535 561 l 521 575 q 478 581 499 578 l 326 581 l 325 157 q 344 83 325 104 q 415 61 363 61 l 415 0 l 28 0 l 28 61 q 97 84 76 61 q 117 158 117 107 l 117 581 l 28 581 l 28 643 l 121 643 q 212 931 121 839 q 497 1024 303 1024 q 647 981 578 1024 q 728 856 728 931 q 697 786 728 814 q 625 758 667 758 q 557 783 588 758 q 526 844 526 807 q 538 885 526 858 q 550 918 550 913 q 522 950 550 938 q 468 963 493 963 q 351 901 385 963 q 325 763 325 854 l 326 643 l 524 642 q 624 647 574 642 q 749 664 674 653 l 747 157 q 766 83 747 104 q 838 61 785 61 z "},"":{"ha":886,"x_min":28,"x_max":844,"o":"m 546 643 l 546 749 q 532 883 546 838 q 440 964 507 964 q 343 882 369 964 q 326 742 326 831 l 326 643 l 546 643 m 844 61 l 844 0 l 472 0 l 472 61 q 531 92 511 61 q 546 158 546 117 l 546 581 l 326 581 l 326 158 q 345 83 326 104 q 415 61 364 61 l 415 0 l 28 0 l 28 61 q 97 84 76 61 q 117 158 117 107 l 117 581 l 28 581 l 28 643 l 117 643 q 196 914 117 814 q 450 1025 283 1025 q 546 1010 482 1025 q 642 994 610 994 q 699 1002 669 994 q 756 1025 728 1010 l 756 158 q 774 83 756 104 q 844 61 793 61 z "},"Ž":{"ha":886,"x_min":46,"x_max":840,"o":"m 344 61 l 418 60 q 657 136 579 60 q 779 363 714 192 l 840 363 l 811 0 l 46 0 l 46 74 l 538 911 l 456 914 q 239 828 318 914 q 129 614 178 761 l 68 614 l 99 972 l 836 972 l 836 899 l 344 61 m 389 1071 l 239 1300 l 243 1304 l 442 1169 l 642 1304 l 646 1300 l 496 1071 l 389 1071 z "},"ž":{"ha":589,"x_min":32,"x_max":558,"o":"m 40 460 l 47 693 l 556 692 l 556 633 l 253 61 q 422 92 378 61 q 497 244 472 126 l 558 244 l 554 0 l 32 1 l 32 61 l 335 633 q 174 605 213 633 q 101 460 135 576 l 40 460 m 242 792 l 92 1021 l 96 1025 l 294 890 l 494 1025 l 499 1021 l 349 792 l 242 792 z "}}}
